<svg xmlns="http://www.w3.org/2000/svg" xmlns:xlink="http://www.w3.org/1999/xlink" width="500" zoomAndPan="magnify" viewBox="0 0 375 374.999991" height="500" preserveAspectRatio="xMidYMid meet" version="1.0"><path fill="#000000" d="M 106.328125 63.058594 L 104.078125 65.304688 L 103.703125 65.304688 L 86.839844 82.144531 L 86.839844 82.519531 L 83.46875 85.890625 L 83.46875 86.261719 L 79.34375 90.378906 L 79.34375 90.753906 L 77.847656 92.25 L 77.847656 92.625 L 74.847656 95.621094 L 74.847656 95.992188 L 72.972656 97.867188 L 72.972656 98.238281 L 71.101562 100.109375 L 71.101562 100.484375 L 69.601562 101.980469 L 69.601562 102.355469 L 68.476562 103.480469 L 68.476562 103.855469 L 66.976562 105.351562 L 66.976562 105.726562 L 65.855469 106.847656 L 65.855469 107.222656 L 64.730469 108.34375 L 64.730469 108.71875 L 63.605469 109.84375 L 63.605469 110.214844 L 62.480469 111.339844 L 62.480469 111.714844 L 61.355469 112.835938 L 61.355469 113.210938 L 60.230469 114.332031 L 60.230469 114.707031 L 59.484375 115.457031 L 59.484375 115.832031 L 58.734375 116.578125 L 58.734375 116.953125 L 57.984375 117.703125 L 57.984375 118.074219 L 57.234375 118.824219 L 57.234375 119.199219 L 56.109375 120.320312 L 56.109375 120.695312 L 55.359375 121.445312 L 55.359375 121.820312 L 54.984375 122.191406 L 54.984375 122.566406 L 53.863281 123.691406 L 53.863281 124.0625 L 53.488281 124.4375 L 53.488281 124.8125 L 52.738281 125.5625 L 52.738281 125.933594 L 51.988281 126.683594 L 51.988281 127.058594 L 51.613281 127.433594 L 51.613281 127.808594 L 51.238281 128.179688 L 51.238281 128.554688 L 50.488281 129.304688 L 50.488281 129.679688 L 49.738281 130.425781 L 49.738281 130.800781 L 49.363281 131.175781 L 49.363281 131.550781 L 48.613281 132.296875 L 48.613281 132.671875 L 48.238281 133.046875 L 48.238281 133.421875 L 47.867188 133.796875 L 47.867188 134.167969 L 47.492188 134.542969 L 47.492188 134.917969 L 46.742188 135.667969 L 46.742188 136.039062 L 46.367188 136.414062 L 46.367188 136.789062 L 45.992188 137.164062 L 45.992188 137.539062 L 45.617188 137.910156 L 45.617188 138.285156 L 45.242188 138.660156 L 45.242188 139.035156 L 44.867188 139.410156 L 44.867188 139.785156 L 44.492188 140.15625 L 44.492188 140.53125 L 44.117188 140.90625 L 44.117188 141.28125 L 43.742188 141.65625 L 43.742188 142.027344 L 43.367188 142.402344 L 43.367188 142.777344 L 42.992188 143.152344 L 42.992188 143.527344 L 42.617188 143.898438 L 42.617188 144.273438 L 42.242188 144.648438 L 42.242188 145.023438 L 41.871094 145.398438 L 41.871094 145.773438 L 41.496094 146.144531 L 41.496094 146.894531 L 41.121094 147.269531 L 41.121094 147.644531 L 40.746094 148.015625 L 40.746094 148.390625 L 40.371094 148.765625 L 40.371094 149.140625 L 39.996094 149.515625 L 39.996094 149.886719 L 39.621094 150.261719 L 39.621094 151.011719 L 39.246094 151.386719 L 39.246094 151.761719 L 38.871094 152.132812 L 38.871094 152.882812 L 38.496094 153.257812 L 38.496094 154.003906 L 38.121094 154.378906 L 38.121094 154.753906 L 37.746094 155.128906 L 37.746094 155.503906 L 37.371094 155.875 L 37.371094 156.625 L 36.996094 157 L 36.996094 157.75 L 36.621094 158.121094 L 36.621094 158.496094 L 36.246094 158.871094 L 36.246094 159.992188 L 35.875 160.367188 L 35.875 160.742188 L 35.5 161.117188 L 35.5 161.863281 L 35.125 162.238281 L 35.125 163.363281 L 34.75 163.738281 L 34.75 164.484375 L 34.375 164.859375 L 34.375 165.980469 L 34 166.355469 L 34 167.105469 L 33.625 167.480469 L 33.625 168.601562 L 33.25 168.976562 L 33.25 170.097656 L 32.875 170.472656 L 32.875 171.96875 L 32.5 172.34375 L 32.5 173.839844 L 32.125 174.214844 L 32.125 175.339844 L 31.75 175.714844 L 31.75 177.585938 L 31.375 177.957031 L 31.375 180.203125 L 31 180.578125 L 31 183.574219 L 30.625 183.945312 L 30.625 188.8125 L 30.25 189.1875 L 30.25 195.550781 L 30.625 195.921875 L 30.625 200.414062 L 31 200.789062 L 31 203.78125 L 31.375 204.15625 L 31.375 206.402344 L 31.75 206.777344 L 31.75 208.273438 L 32.125 208.648438 L 32.125 210.144531 L 32.5 210.519531 L 32.5 211.644531 L 32.875 212.015625 L 32.875 213.140625 L 33.25 213.515625 L 33.25 214.261719 L 33.625 214.636719 L 33.625 215.386719 L 34 215.757812 L 34 216.882812 L 34.375 217.257812 L 34.375 218.003906 L 34.75 218.378906 L 34.75 219.128906 L 35.125 219.503906 L 35.125 220.25 L 35.5 220.625 L 35.5 221.375 L 35.875 221.746094 L 35.875 222.121094 L 36.246094 222.496094 L 36.246094 222.871094 L 36.621094 223.246094 L 36.621094 223.992188 L 36.996094 224.367188 L 36.996094 224.742188 L 37.371094 225.117188 L 37.371094 225.863281 L 37.746094 226.238281 L 37.746094 226.613281 L 38.121094 226.988281 L 38.121094 227.363281 L 38.496094 227.734375 L 38.496094 228.109375 L 39.246094 228.859375 L 39.246094 229.234375 L 39.621094 229.609375 L 39.621094 230.355469 L 40.371094 231.105469 L 40.371094 231.480469 L 40.746094 231.851562 L 40.746094 232.226562 L 41.121094 232.601562 L 41.121094 232.976562 L 41.496094 233.351562 L 41.496094 233.722656 L 42.242188 234.472656 L 42.242188 234.847656 L 42.617188 235.222656 L 42.617188 235.597656 L 43.367188 236.34375 L 43.367188 236.71875 L 43.742188 237.09375 L 43.742188 237.46875 L 44.492188 238.214844 L 44.492188 238.589844 L 45.242188 239.339844 L 45.242188 239.710938 L 45.617188 240.085938 L 45.617188 240.460938 L 46.367188 241.210938 L 46.367188 241.585938 L 47.117188 242.332031 L 47.117188 242.707031 L 47.867188 243.457031 L 47.867188 243.828125 L 48.613281 244.578125 L 48.613281 244.953125 L 49.738281 246.074219 L 49.738281 246.449219 L 50.863281 247.574219 L 50.863281 247.945312 L 51.613281 248.695312 L 51.613281 249.070312 L 52.738281 250.191406 L 52.738281 250.566406 L 54.234375 252.0625 L 54.234375 252.4375 L 55.359375 253.5625 L 55.359375 253.933594 L 56.859375 255.433594 L 56.859375 255.804688 L 59.109375 258.050781 L 59.109375 258.425781 L 61.355469 260.671875 L 61.355469 261.046875 L 69.601562 269.28125 L 69.976562 269.28125 L 71.476562 270.777344 L 71.851562 270.777344 L 72.972656 271.898438 L 73.347656 271.898438 L 74.097656 272.648438 L 74.472656 272.648438 L 75.972656 274.144531 L 76.347656 274.144531 L 77.847656 275.640625 L 83.09375 275.640625 L 83.46875 276.015625 L 148.675781 276.015625 L 149.050781 276.390625 L 161.792969 276.390625 L 162.164062 276.765625 L 171.535156 276.765625 L 171.910156 277.140625 L 172.285156 277.140625 L 172.660156 277.515625 L 172.285156 277.886719 L 164.414062 277.886719 L 164.039062 278.261719 L 156.542969 278.261719 L 156.167969 278.636719 L 149.050781 278.636719 L 148.675781 279.011719 L 138.179688 279.011719 L 137.808594 279.386719 L 128.0625 279.386719 L 127.6875 279.757812 L 116.070312 279.757812 L 115.695312 280.132812 L 101.832031 280.132812 L 101.457031 280.507812 L 83.46875 280.507812 L 83.46875 280.882812 L 83.84375 280.882812 L 84.589844 281.628906 L 84.964844 281.628906 L 86.464844 283.128906 L 86.839844 283.128906 L 87.964844 284.25 L 88.339844 284.25 L 89.464844 285.375 L 89.839844 285.375 L 90.585938 286.121094 L 90.960938 286.121094 L 91.335938 286.496094 L 165.539062 286.496094 L 165.914062 286.121094 L 173.035156 286.121094 L 173.410156 285.746094 L 175.28125 285.746094 L 175.65625 285.375 L 176.40625 285.375 L 176.78125 285 L 177.15625 285 L 179.78125 282.378906 L 180.152344 282.378906 L 182.402344 280.132812 L 182.777344 280.132812 L 189.148438 273.769531 L 189.523438 273.769531 L 194.769531 268.53125 L 194.769531 268.15625 L 197.019531 265.910156 L 197.019531 265.539062 L 198.140625 264.414062 L 198.140625 264.039062 L 199.640625 262.542969 L 199.640625 262.167969 L 200.390625 261.421875 L 200.390625 261.046875 L 201.515625 259.921875 L 201.515625 259.550781 L 202.265625 258.800781 L 202.265625 258.425781 L 203.390625 257.304688 L 203.390625 256.929688 L 204.136719 256.179688 L 204.136719 255.804688 L 204.886719 255.058594 L 204.886719 254.683594 L 205.636719 253.933594 L 205.636719 253.5625 L 206.761719 252.4375 L 206.761719 252.0625 L 207.511719 251.316406 L 207.511719 250.941406 L 207.886719 250.566406 L 207.886719 250.191406 L 208.636719 249.445312 L 208.636719 249.070312 L 209.386719 248.320312 L 209.386719 247.945312 L 210.132812 247.199219 L 210.132812 246.824219 L 210.507812 246.449219 L 210.507812 246.074219 L 211.257812 245.328125 L 211.257812 244.953125 L 211.632812 244.578125 L 211.632812 244.203125 L 212.382812 243.457031 L 212.382812 243.082031 L 212.757812 242.707031 L 212.757812 242.332031 L 213.507812 241.585938 L 213.507812 241.210938 L 213.882812 240.835938 L 213.882812 240.460938 L 214.632812 239.710938 L 214.632812 239.339844 L 215.007812 238.964844 L 215.007812 238.589844 L 215.382812 238.214844 L 215.382812 237.839844 L 215.757812 237.46875 L 215.757812 237.09375 L 216.503906 236.34375 L 216.503906 235.96875 L 216.878906 235.597656 L 216.878906 235.222656 L 217.253906 234.847656 L 217.253906 234.472656 L 217.628906 234.097656 L 217.628906 233.722656 L 218.378906 232.976562 L 218.378906 232.601562 L 218.753906 232.226562 L 218.753906 231.851562 L 219.128906 231.480469 L 219.128906 231.105469 L 219.503906 230.730469 L 219.503906 230.355469 L 219.878906 229.980469 L 219.878906 229.609375 L 220.253906 229.234375 L 220.253906 228.859375 L 220.628906 228.484375 L 220.628906 228.109375 L 221.003906 227.734375 L 221.003906 227.363281 L 221.378906 226.988281 L 221.378906 226.238281 L 222.125 225.492188 L 222.125 224.742188 L 222.5 224.367188 L 222.5 223.992188 L 222.875 223.621094 L 222.875 223.246094 L 223.25 222.871094 L 223.25 222.496094 L 223.625 222.121094 L 223.625 221.746094 L 224 221.375 L 224 221 L 224.375 220.625 L 224.375 220.25 L 224.75 219.875 L 224.75 219.128906 L 225.125 218.753906 L 225.125 218.378906 L 225.5 218.003906 L 225.5 217.632812 L 225.875 217.257812 L 225.875 216.507812 L 226.25 216.132812 L 226.25 215.757812 L 226.625 215.386719 L 226.625 215.011719 L 227 214.636719 L 227 213.886719 L 227.375 213.515625 L 227.375 213.140625 L 227.75 212.765625 L 227.75 212.015625 L 228.121094 211.644531 L 228.121094 211.269531 L 228.496094 210.894531 L 228.496094 210.144531 L 228.871094 209.769531 L 228.871094 209.398438 L 229.246094 209.023438 L 229.246094 208.273438 L 229.621094 207.898438 L 229.621094 207.527344 L 229.996094 207.152344 L 229.996094 206.402344 L 230.371094 206.027344 L 230.371094 205.65625 L 230.746094 205.28125 L 230.746094 204.53125 L 231.121094 204.15625 L 231.121094 203.410156 L 231.496094 203.035156 L 231.496094 202.285156 L 231.871094 201.910156 L 231.871094 201.539062 L 232.246094 201.164062 L 232.246094 200.414062 L 232.621094 200.039062 L 232.621094 199.292969 L 232.996094 198.917969 L 232.996094 198.167969 L 233.371094 197.792969 L 233.371094 197.046875 L 233.746094 196.671875 L 233.746094 195.921875 L 234.117188 195.550781 L 234.117188 194.800781 L 234.492188 194.425781 L 234.492188 193.679688 L 234.867188 193.304688 L 234.867188 192.554688 L 235.242188 192.179688 L 235.242188 191.433594 L 234.867188 191.433594 L 234.492188 191.058594 L 234.117188 191.058594 L 233.746094 190.683594 L 232.996094 190.683594 L 232.621094 190.308594 L 232.246094 190.308594 L 231.871094 189.933594 L 231.496094 189.933594 L 231.121094 189.5625 L 230.746094 189.5625 L 230.371094 189.1875 L 229.621094 189.1875 L 229.246094 188.8125 L 228.871094 188.8125 L 228.496094 188.4375 L 228.121094 188.4375 L 227.75 188.0625 L 227 188.0625 L 226.625 187.691406 L 226.25 187.691406 L 225.875 187.316406 L 225.5 187.316406 L 225.125 186.941406 L 224.75 186.941406 L 224.375 186.566406 L 223.625 186.566406 L 223.25 186.191406 L 222.5 186.191406 L 222.125 185.816406 L 221.753906 185.816406 L 221.378906 185.445312 L 220.628906 185.445312 L 220.253906 185.070312 L 219.878906 185.070312 L 219.503906 184.695312 L 218.753906 184.695312 L 218.378906 184.320312 L 217.628906 184.320312 L 217.253906 183.945312 L 216.878906 183.945312 L 216.503906 183.574219 L 215.757812 183.574219 L 215.382812 183.199219 L 214.632812 183.199219 L 214.257812 182.824219 L 213.507812 182.824219 L 213.132812 182.449219 L 212.757812 182.449219 L 212.382812 182.074219 L 211.632812 182.074219 L 211.257812 181.703125 L 210.507812 181.703125 L 210.132812 181.328125 L 209.386719 181.328125 L 209.011719 180.953125 L 208.261719 180.953125 L 207.886719 180.578125 L 207.511719 180.578125 L 207.136719 180.203125 L 206.011719 180.203125 L 205.636719 179.828125 L 204.886719 179.828125 L 204.511719 179.457031 L 203.765625 179.457031 L 203.390625 179.082031 L 202.640625 179.082031 L 202.265625 178.707031 L 201.515625 178.707031 L 201.140625 178.332031 L 200.390625 178.332031 L 200.015625 177.957031 L 198.890625 177.957031 L 198.515625 177.585938 L 197.769531 177.585938 L 197.394531 177.210938 L 196.644531 177.210938 L 196.269531 176.835938 L 195.519531 176.835938 L 195.144531 176.460938 L 194.019531 176.460938 L 193.644531 176.085938 L 192.894531 176.085938 L 192.519531 175.714844 L 191.398438 175.714844 L 191.023438 175.339844 L 190.273438 175.339844 L 189.898438 174.964844 L 189.148438 174.964844 L 188.773438 174.589844 L 187.648438 174.589844 L 187.273438 174.214844 L 186.148438 174.214844 L 185.777344 173.839844 L 184.652344 173.839844 L 184.277344 173.46875 L 183.527344 173.46875 L 183.152344 173.09375 L 182.027344 173.09375 L 181.652344 172.71875 L 180.527344 172.71875 L 180.152344 172.34375 L 179.03125 172.34375 L 178.65625 171.96875 L 177.53125 171.96875 L 177.15625 171.597656 L 176.03125 171.597656 L 175.65625 171.222656 L 174.53125 171.222656 L 174.15625 170.847656 L 173.035156 170.847656 L 172.660156 170.472656 L 171.535156 170.472656 L 171.160156 170.097656 L 170.035156 170.097656 L 169.660156 169.726562 L 168.160156 169.726562 L 167.789062 169.351562 L 166.664062 169.351562 L 166.289062 168.976562 L 165.164062 168.976562 L 164.789062 168.601562 L 163.289062 168.601562 L 162.914062 168.226562 L 161.417969 168.226562 L 161.042969 167.851562 L 159.542969 167.851562 L 159.167969 167.480469 L 158.042969 167.480469 L 157.667969 167.105469 L 156.917969 167.105469 L 156.917969 167.851562 L 156.542969 168.226562 L 156.542969 169.726562 L 156.167969 170.097656 L 156.167969 171.597656 L 155.796875 171.96875 L 155.796875 173.09375 L 155.421875 173.46875 L 155.421875 174.964844 L 155.046875 175.339844 L 155.046875 176.835938 L 154.671875 177.210938 L 154.671875 178.707031 L 154.296875 179.082031 L 154.296875 180.578125 L 153.921875 180.953125 L 153.921875 182.449219 L 153.546875 182.824219 L 153.546875 184.320312 L 153.171875 184.695312 L 153.171875 186.191406 L 152.796875 186.566406 L 152.796875 188.0625 L 152.421875 188.4375 L 152.421875 189.933594 L 152.046875 190.308594 L 152.046875 191.804688 L 151.671875 192.179688 L 151.671875 193.304688 L 151.296875 193.679688 L 151.296875 195.175781 L 150.921875 195.550781 L 150.921875 197.046875 L 150.546875 197.421875 L 150.546875 198.917969 L 150.171875 199.292969 L 150.171875 200.789062 L 149.800781 201.164062 L 149.800781 201.539062 L 150.171875 201.910156 L 151.296875 201.910156 L 151.671875 202.285156 L 152.796875 202.285156 L 153.171875 202.660156 L 154.671875 202.660156 L 155.046875 203.035156 L 156.167969 203.035156 L 156.542969 203.410156 L 157.667969 203.410156 L 158.042969 203.78125 L 159.167969 203.78125 L 159.542969 204.15625 L 160.292969 204.15625 L 160.667969 204.53125 L 161.792969 204.53125 L 162.164062 204.90625 L 162.914062 204.90625 L 163.289062 205.28125 L 164.414062 205.28125 L 164.789062 205.65625 L 165.539062 205.65625 L 165.914062 206.027344 L 166.664062 206.027344 L 167.039062 206.402344 L 167.789062 206.402344 L 168.160156 206.777344 L 168.910156 206.777344 L 169.285156 207.152344 L 170.035156 207.152344 L 170.410156 207.527344 L 170.785156 207.527344 L 171.160156 207.898438 L 171.910156 207.898438 L 172.285156 208.273438 L 173.035156 208.273438 L 173.410156 208.648438 L 173.785156 208.648438 L 174.15625 209.023438 L 174.53125 209.023438 L 174.90625 209.398438 L 175.28125 209.398438 L 175.65625 209.769531 L 176.03125 209.769531 L 176.40625 210.144531 L 177.15625 210.144531 L 177.90625 210.894531 L 177.90625 212.015625 L 178.28125 212.390625 L 178.28125 213.886719 L 178.65625 214.261719 L 178.65625 216.507812 L 179.03125 216.882812 L 179.03125 219.503906 L 179.40625 219.875 L 179.40625 223.992188 L 179.78125 224.367188 L 179.78125 231.851562 L 179.40625 232.226562 L 179.03125 232.226562 L 178.65625 232.601562 L 177.90625 232.601562 L 177.53125 232.976562 L 176.03125 232.976562 L 175.65625 233.351562 L 174.53125 233.351562 L 174.15625 233.722656 L 172.660156 233.722656 L 172.285156 234.097656 L 170.410156 234.097656 L 170.035156 234.472656 L 168.160156 234.472656 L 167.789062 234.847656 L 165.539062 234.847656 L 165.164062 235.222656 L 162.164062 235.222656 L 161.792969 235.597656 L 157.292969 235.597656 L 156.917969 235.96875 L 146.800781 235.96875 L 146.425781 235.597656 L 143.429688 235.597656 L 143.054688 235.222656 L 141.179688 235.222656 L 140.804688 234.847656 L 138.929688 234.847656 L 138.554688 234.472656 L 137.808594 234.472656 L 137.433594 234.097656 L 136.683594 234.097656 L 136.308594 233.722656 L 135.558594 233.722656 L 135.183594 233.351562 L 134.433594 233.351562 L 134.058594 232.976562 L 133.683594 232.976562 L 133.308594 232.601562 L 132.558594 232.601562 L 132.183594 232.226562 L 131.8125 232.226562 L 131.4375 231.851562 L 131.0625 231.851562 L 130.6875 231.480469 L 130.3125 231.480469 L 129.5625 230.730469 L 129.1875 230.730469 L 127.6875 229.234375 L 127.3125 229.234375 L 125.066406 226.988281 L 125.066406 226.613281 L 123.566406 225.117188 L 123.566406 224.742188 L 122.441406 223.621094 L 122.441406 223.246094 L 121.691406 222.496094 L 121.691406 222.121094 L 120.941406 221.375 L 120.941406 221 L 120.566406 220.625 L 120.566406 220.25 L 120.191406 219.875 L 120.191406 219.503906 L 119.445312 218.753906 L 119.445312 218.378906 L 119.070312 218.003906 L 119.070312 217.632812 L 118.695312 217.257812 L 118.695312 216.507812 L 118.320312 216.132812 L 118.320312 215.757812 L 117.945312 215.386719 L 117.945312 215.011719 L 117.570312 214.636719 L 117.570312 213.886719 L 117.195312 213.515625 L 117.195312 213.140625 L 116.820312 212.765625 L 116.820312 212.015625 L 116.445312 211.644531 L 116.445312 210.894531 L 116.070312 210.519531 L 116.070312 209.769531 L 115.695312 209.398438 L 115.695312 208.648438 L 115.320312 208.273438 L 115.320312 207.527344 L 114.945312 207.152344 L 114.945312 206.402344 L 114.570312 206.027344 L 114.570312 204.90625 L 114.195312 204.53125 L 114.195312 203.035156 L 113.824219 202.660156 L 113.824219 198.917969 L 113.449219 198.542969 L 113.449219 189.933594 L 113.824219 189.5625 L 113.824219 186.191406 L 114.195312 185.816406 L 114.195312 183.199219 L 114.570312 182.824219 L 114.570312 180.953125 L 114.945312 180.578125 L 114.945312 179.082031 L 115.320312 178.707031 L 115.320312 177.210938 L 115.695312 176.835938 L 115.695312 175.714844 L 116.070312 175.339844 L 116.070312 174.214844 L 116.445312 173.839844 L 116.445312 172.71875 L 116.820312 172.34375 L 116.820312 171.222656 L 117.195312 170.847656 L 117.195312 169.726562 L 117.570312 169.351562 L 117.570312 168.601562 L 117.945312 168.226562 L 117.945312 167.105469 L 118.320312 166.730469 L 118.320312 165.980469 L 118.695312 165.609375 L 118.695312 164.859375 L 119.070312 164.484375 L 119.070312 163.738281 L 119.445312 163.363281 L 119.445312 162.613281 L 119.820312 162.238281 L 119.820312 161.492188 L 120.191406 161.117188 L 120.191406 160.367188 L 120.566406 159.992188 L 120.566406 159.246094 L 120.941406 158.871094 L 120.941406 158.496094 L 121.316406 158.121094 L 121.316406 157.375 L 121.691406 157 L 121.691406 156.625 L 122.066406 156.25 L 122.066406 155.875 L 122.441406 155.503906 L 122.441406 154.753906 L 122.816406 154.378906 L 122.816406 154.003906 L 123.191406 153.632812 L 123.191406 153.257812 L 123.566406 152.882812 L 123.566406 152.132812 L 123.941406 151.761719 L 123.941406 151.386719 L 124.316406 151.011719 L 124.316406 150.636719 L 124.691406 150.261719 L 124.691406 149.886719 L 125.066406 149.515625 L 125.066406 149.140625 L 125.441406 148.765625 L 125.441406 148.015625 L 125.816406 147.644531 L 125.816406 147.269531 L 126.1875 146.894531 L 126.1875 146.519531 L 126.5625 146.144531 L 126.5625 145.773438 L 126.9375 145.398438 L 126.9375 145.023438 L 127.3125 144.648438 L 127.3125 144.273438 L 127.6875 143.898438 L 127.6875 143.527344 L 128.0625 143.152344 L 128.0625 142.777344 L 128.8125 142.027344 L 128.8125 141.65625 L 129.1875 141.28125 L 129.1875 140.90625 L 129.5625 140.53125 L 129.5625 140.15625 L 129.9375 139.785156 L 129.9375 139.410156 L 130.3125 139.035156 L 130.3125 138.660156 L 131.0625 137.910156 L 131.0625 137.539062 L 131.4375 137.164062 L 131.4375 136.789062 L 132.183594 136.039062 L 132.183594 135.667969 L 132.558594 135.292969 L 132.558594 134.917969 L 133.308594 134.167969 L 133.308594 133.796875 L 134.058594 133.046875 L 134.058594 132.671875 L 134.808594 131.921875 L 134.808594 131.550781 L 135.183594 131.175781 L 135.183594 130.800781 L 135.933594 130.050781 L 135.933594 129.679688 L 136.683594 128.929688 L 136.683594 128.554688 L 137.808594 127.433594 L 137.808594 127.058594 L 138.554688 126.308594 L 138.554688 125.933594 L 139.304688 125.1875 L 139.304688 124.8125 L 140.429688 123.691406 L 140.429688 123.316406 L 141.554688 122.191406 L 141.554688 121.820312 L 142.304688 121.070312 L 142.304688 120.695312 L 143.804688 119.199219 L 143.804688 118.824219 L 145.300781 117.328125 L 145.300781 116.953125 L 147.925781 114.332031 L 149.050781 114.332031 L 149.425781 113.957031 L 151.296875 113.957031 L 151.671875 113.585938 L 154.296875 113.585938 L 154.671875 113.210938 L 157.292969 113.210938 L 157.667969 112.835938 L 161.042969 112.835938 L 161.417969 112.460938 L 166.664062 112.460938 L 167.039062 112.085938 L 181.652344 112.085938 L 182.027344 112.460938 L 185.402344 112.460938 L 185.777344 112.835938 L 188.023438 112.835938 L 188.398438 113.210938 L 190.273438 113.210938 L 190.648438 113.585938 L 192.519531 113.585938 L 192.894531 113.957031 L 194.394531 113.957031 L 194.769531 114.332031 L 195.894531 114.332031 L 196.269531 114.707031 L 197.769531 114.707031 L 198.140625 115.082031 L 199.265625 115.082031 L 199.640625 115.457031 L 200.765625 115.457031 L 201.140625 115.832031 L 201.890625 115.832031 L 202.265625 116.203125 L 203.015625 116.203125 L 203.390625 116.578125 L 204.511719 116.578125 L 204.886719 116.953125 L 205.636719 116.953125 L 206.011719 117.328125 L 207.136719 117.328125 L 207.511719 117.703125 L 208.261719 117.703125 L 208.636719 118.074219 L 209.386719 118.074219 L 209.761719 118.449219 L 210.507812 118.449219 L 210.882812 118.824219 L 211.632812 118.824219 L 212.007812 119.199219 L 212.757812 119.199219 L 213.132812 119.574219 L 213.882812 119.574219 L 214.257812 119.945312 L 214.632812 119.945312 L 215.007812 120.320312 L 215.382812 120.320312 L 215.757812 120.695312 L 215.757812 121.070312 L 215.382812 121.445312 L 215.382812 122.191406 L 215.007812 122.566406 L 215.007812 122.941406 L 214.632812 123.316406 L 214.632812 124.0625 L 214.257812 124.4375 L 214.257812 125.1875 L 213.882812 125.5625 L 213.882812 126.683594 L 213.507812 127.058594 L 213.507812 128.554688 L 213.132812 128.929688 L 213.132812 130.425781 L 212.757812 130.800781 L 212.757812 134.542969 L 212.382812 134.917969 L 212.382812 142.027344 L 212.757812 142.402344 L 212.757812 145.023438 L 213.132812 145.398438 L 213.132812 146.894531 L 213.507812 147.269531 L 213.507812 148.390625 L 213.882812 148.765625 L 213.882812 149.886719 L 214.257812 150.261719 L 214.257812 151.386719 L 214.632812 151.761719 L 214.632812 152.507812 L 215.007812 152.882812 L 215.007812 153.257812 L 215.382812 153.632812 L 215.382812 154.378906 L 215.757812 154.753906 L 215.757812 155.128906 L 216.128906 155.503906 L 216.128906 155.875 L 216.503906 156.25 L 216.503906 156.625 L 216.878906 157 L 216.878906 157.375 L 217.253906 157.75 L 217.253906 158.121094 L 217.628906 158.496094 L 217.628906 158.871094 L 218.753906 159.992188 L 218.753906 160.367188 L 219.878906 161.492188 L 219.878906 161.863281 L 220.628906 162.613281 L 220.628906 162.988281 L 222.125 164.484375 L 222.125 164.859375 L 224.75 167.480469 L 225.125 167.480469 L 225.875 168.226562 L 225.875 168.601562 L 226.25 168.601562 L 228.871094 171.222656 L 229.246094 171.222656 L 230.371094 172.34375 L 230.746094 172.34375 L 231.871094 173.46875 L 232.246094 173.46875 L 233.371094 174.589844 L 233.746094 174.589844 L 234.867188 175.714844 L 235.242188 175.714844 L 235.992188 176.460938 L 236.367188 176.460938 L 237.117188 177.210938 L 237.492188 177.210938 L 237.867188 177.585938 L 238.242188 177.585938 L 238.992188 178.332031 L 239.367188 178.332031 L 240.113281 179.082031 L 240.488281 179.082031 L 241.238281 179.828125 L 241.613281 179.828125 L 242.363281 180.578125 L 242.738281 180.578125 L 243.488281 181.328125 L 243.863281 181.328125 L 244.613281 182.074219 L 244.988281 182.074219 L 245.738281 182.824219 L 246.109375 182.824219 L 246.484375 183.199219 L 246.859375 183.199219 L 247.609375 183.945312 L 247.984375 183.945312 L 248.359375 184.320312 L 248.734375 184.320312 L 249.109375 184.695312 L 249.484375 184.695312 L 250.234375 185.445312 L 250.609375 185.445312 L 251.359375 186.191406 L 251.734375 186.191406 L 252.105469 186.566406 L 252.480469 186.566406 L 252.855469 186.941406 L 253.230469 186.941406 L 253.980469 187.691406 L 254.355469 187.691406 L 254.730469 188.0625 L 255.105469 188.0625 L 255.480469 188.4375 L 255.855469 188.4375 L 256.230469 188.8125 L 256.605469 188.8125 L 257.355469 189.5625 L 257.730469 189.5625 L 258.101562 189.933594 L 258.476562 189.933594 L 258.851562 190.308594 L 259.226562 190.308594 L 259.601562 190.683594 L 259.976562 190.683594 L 260.351562 191.058594 L 260.726562 191.058594 L 261.101562 191.433594 L 261.476562 191.433594 L 261.851562 191.804688 L 262.226562 191.804688 L 262.601562 192.179688 L 262.976562 192.179688 L 263.351562 192.554688 L 263.726562 192.554688 L 264.097656 192.929688 L 264.472656 192.929688 L 264.847656 193.304688 L 265.222656 193.304688 L 265.597656 193.679688 L 265.972656 193.679688 L 266.347656 194.050781 L 266.722656 194.050781 L 267.097656 194.425781 L 267.472656 194.425781 L 267.847656 194.800781 L 268.597656 194.800781 L 269.347656 195.550781 L 270.09375 195.550781 L 270.46875 195.921875 L 270.84375 195.921875 L 271.21875 196.296875 L 271.96875 196.296875 L 272.34375 196.671875 L 272.71875 196.671875 L 273.09375 197.046875 L 273.46875 197.046875 L 273.84375 197.421875 L 274.59375 197.421875 L 274.96875 197.792969 L 275.34375 197.792969 L 275.71875 198.167969 L 276.089844 198.167969 L 276.464844 198.542969 L 276.839844 198.542969 L 277.214844 198.917969 L 277.964844 198.917969 L 278.339844 199.292969 L 278.714844 199.292969 L 279.089844 199.667969 L 279.839844 199.667969 L 280.214844 200.039062 L 280.589844 200.039062 L 280.964844 200.414062 L 281.339844 200.414062 L 281.714844 200.789062 L 282.460938 200.789062 L 282.835938 201.164062 L 283.585938 201.164062 L 283.960938 201.539062 L 284.335938 201.539062 L 284.710938 201.910156 L 285.460938 201.910156 L 285.835938 202.285156 L 286.210938 202.285156 L 286.585938 202.660156 L 287.335938 202.660156 L 287.710938 203.035156 L 288.082031 203.035156 L 288.457031 203.410156 L 289.207031 203.410156 L 289.582031 203.78125 L 289.957031 203.78125 L 290.332031 204.15625 L 290.707031 204.15625 L 291.082031 204.53125 L 291.832031 204.53125 L 292.207031 204.90625 L 292.582031 204.90625 L 292.957031 205.28125 L 293.332031 205.28125 L 293.707031 205.65625 L 294.453125 205.65625 L 294.828125 206.027344 L 295.203125 206.027344 L 295.578125 206.402344 L 296.328125 206.402344 L 296.703125 206.777344 L 297.078125 206.777344 L 297.453125 207.152344 L 298.203125 207.152344 L 298.578125 207.527344 L 298.953125 207.527344 L 299.328125 207.898438 L 299.703125 207.898438 L 300.074219 208.273438 L 300.449219 208.273438 L 300.824219 208.648438 L 301.574219 208.648438 L 301.949219 209.023438 L 302.324219 209.023438 L 302.699219 209.398438 L 303.074219 209.398438 L 303.449219 209.769531 L 303.824219 209.769531 L 304.199219 210.144531 L 304.574219 210.144531 L 304.949219 210.519531 L 305.324219 210.519531 L 305.699219 210.894531 L 306.070312 210.894531 L 306.445312 211.269531 L 306.820312 211.269531 L 307.195312 211.644531 L 307.570312 211.644531 L 307.945312 212.015625 L 308.320312 212.015625 L 309.070312 212.765625 L 309.445312 212.765625 L 309.820312 213.140625 L 310.195312 213.140625 L 311.320312 214.261719 L 311.695312 214.261719 L 312.441406 215.011719 L 312.441406 215.386719 L 313.191406 216.132812 L 313.191406 216.507812 L 313.566406 216.882812 L 313.566406 217.632812 L 313.941406 218.003906 L 313.941406 220.25 L 314.316406 220.625 L 314.316406 228.109375 L 313.941406 228.484375 L 313.941406 230.730469 L 313.566406 231.105469 L 313.566406 232.226562 L 313.191406 232.601562 L 313.191406 233.722656 L 312.816406 234.097656 L 312.816406 234.847656 L 312.441406 235.222656 L 312.441406 235.96875 L 312.066406 236.34375 L 312.066406 237.09375 L 311.695312 237.46875 L 311.695312 238.214844 L 311.320312 238.589844 L 311.320312 238.964844 L 310.945312 239.339844 L 310.945312 239.710938 L 310.570312 240.085938 L 310.570312 240.460938 L 312.066406 240.460938 L 312.441406 240.085938 L 314.691406 240.085938 L 315.066406 239.710938 L 316.566406 239.710938 L 316.941406 239.339844 L 317.316406 239.339844 L 318.8125 237.839844 L 318.8125 237.46875 L 319.1875 237.09375 L 319.1875 236.71875 L 319.5625 236.34375 L 319.5625 235.597656 L 319.9375 235.222656 L 319.9375 234.847656 L 320.3125 234.472656 L 320.3125 233.722656 L 320.6875 233.351562 L 320.6875 232.226562 L 321.0625 231.851562 L 321.0625 230.730469 L 321.4375 230.355469 L 321.4375 228.484375 L 321.8125 228.109375 L 321.8125 226.238281 L 322.1875 225.863281 L 322.1875 222.496094 L 322.5625 222.121094 L 322.5625 213.140625 L 322.1875 212.765625 L 322.1875 209.023438 L 316.941406 203.78125 L 316.566406 203.78125 L 314.691406 201.910156 L 314.316406 201.910156 L 313.191406 200.789062 L 312.816406 200.789062 L 311.695312 199.667969 L 311.320312 199.667969 L 310.195312 198.542969 L 309.820312 198.542969 L 309.070312 197.792969 L 308.695312 197.792969 L 307.945312 197.046875 L 307.570312 197.046875 L 306.820312 196.296875 L 306.445312 196.296875 L 306.070312 195.921875 L 305.699219 195.921875 L 304.949219 195.175781 L 304.574219 195.175781 L 303.824219 194.425781 L 303.449219 194.425781 L 302.699219 193.679688 L 302.324219 193.679688 L 301.949219 193.304688 L 301.574219 193.304688 L 300.824219 192.554688 L 300.449219 192.554688 L 300.074219 192.179688 L 299.703125 192.179688 L 298.953125 191.433594 L 298.578125 191.433594 L 298.203125 191.058594 L 297.828125 191.058594 L 297.078125 190.308594 L 296.703125 190.308594 L 296.328125 189.933594 L 295.953125 189.933594 L 295.578125 189.5625 L 295.203125 189.5625 L 294.828125 189.1875 L 294.453125 189.1875 L 293.707031 188.4375 L 294.078125 188.0625 L 294.453125 188.0625 L 294.828125 188.4375 L 295.203125 188.4375 L 295.578125 188.8125 L 296.328125 188.8125 L 296.703125 189.1875 L 297.078125 189.1875 L 297.453125 189.5625 L 298.203125 189.5625 L 298.578125 189.933594 L 298.953125 189.933594 L 299.328125 190.308594 L 299.703125 190.308594 L 300.074219 190.683594 L 300.824219 190.683594 L 301.199219 191.058594 L 301.574219 191.058594 L 301.949219 191.433594 L 302.699219 191.433594 L 303.074219 191.804688 L 303.449219 191.804688 L 303.824219 192.179688 L 304.199219 192.179688 L 304.574219 192.554688 L 304.949219 192.554688 L 305.324219 192.929688 L 305.699219 192.929688 L 306.070312 193.304688 L 306.820312 193.304688 L 307.195312 193.679688 L 307.570312 193.679688 L 307.945312 194.050781 L 308.320312 194.050781 L 308.695312 194.425781 L 309.070312 194.425781 L 309.445312 194.800781 L 309.820312 194.800781 L 310.195312 195.175781 L 310.570312 195.175781 L 310.945312 195.550781 L 311.320312 195.550781 L 311.695312 195.921875 L 312.066406 195.921875 L 312.441406 196.296875 L 312.816406 196.296875 L 313.191406 196.671875 L 313.566406 196.671875 L 313.941406 197.046875 L 314.316406 197.046875 L 314.691406 197.421875 L 315.066406 197.421875 L 315.441406 197.792969 L 315.816406 197.792969 L 316.566406 198.542969 L 316.941406 198.542969 L 317.316406 198.917969 L 317.691406 198.917969 L 318.4375 199.667969 L 318.8125 199.667969 L 319.1875 200.039062 L 319.5625 200.039062 L 320.3125 200.789062 L 320.6875 200.789062 L 321.4375 201.539062 L 321.8125 201.539062 L 322.5625 202.285156 L 322.9375 202.285156 L 324.058594 203.410156 L 324.433594 203.410156 L 326.683594 205.65625 L 327.058594 205.65625 L 327.433594 206.027344 L 327.433594 206.402344 L 328.558594 207.527344 L 328.558594 209.023438 L 328.933594 209.398438 L 328.933594 220.625 L 328.558594 221 L 328.558594 223.621094 L 328.183594 223.992188 L 328.183594 225.863281 L 327.808594 226.238281 L 327.808594 227.734375 L 327.433594 228.109375 L 327.433594 229.234375 L 327.058594 229.609375 L 327.058594 230.730469 L 326.683594 231.105469 L 326.683594 232.226562 L 326.308594 232.601562 L 326.308594 233.722656 L 325.933594 234.097656 L 325.933594 234.847656 L 325.558594 235.222656 L 325.558594 235.96875 L 325.183594 236.34375 L 325.183594 237.09375 L 324.808594 237.46875 L 324.808594 237.839844 L 324.433594 238.214844 L 324.433594 238.964844 L 324.058594 239.339844 L 324.058594 239.710938 L 323.6875 240.085938 L 323.6875 240.835938 L 323.3125 241.210938 L 323.3125 241.585938 L 322.9375 241.957031 L 322.9375 242.332031 L 320.6875 244.578125 L 320.3125 244.578125 L 319.9375 244.953125 L 319.5625 244.953125 L 319.1875 245.328125 L 318.8125 245.328125 L 318.4375 245.699219 L 317.316406 245.699219 L 316.941406 246.074219 L 315.441406 246.074219 L 315.066406 246.449219 L 312.816406 246.449219 L 312.441406 246.824219 L 307.195312 246.824219 L 306.820312 247.199219 L 297.828125 247.199219 L 297.453125 246.824219 L 286.585938 246.824219 L 286.210938 246.449219 L 281.714844 246.449219 L 281.339844 246.074219 L 278.714844 246.074219 L 278.339844 245.699219 L 276.089844 245.699219 L 275.71875 245.328125 L 273.84375 245.328125 L 273.46875 244.953125 L 271.59375 244.953125 L 271.21875 244.578125 L 270.09375 244.578125 L 269.722656 244.203125 L 268.222656 244.203125 L 267.847656 243.828125 L 266.722656 243.828125 L 266.347656 243.457031 L 265.222656 243.457031 L 264.847656 243.082031 L 263.726562 243.082031 L 263.351562 242.707031 L 262.601562 242.707031 L 262.226562 242.332031 L 261.476562 242.332031 L 261.101562 241.957031 L 260.351562 241.957031 L 259.976562 241.585938 L 258.851562 241.585938 L 258.476562 241.210938 L 257.730469 241.210938 L 257.355469 240.835938 L 256.980469 240.835938 L 256.605469 240.460938 L 255.855469 240.460938 L 255.480469 240.085938 L 254.730469 240.085938 L 254.355469 239.710938 L 253.605469 239.710938 L 253.230469 239.339844 L 252.855469 239.339844 L 252.480469 238.964844 L 251.734375 238.964844 L 251.359375 238.589844 L 250.984375 238.589844 L 250.609375 238.214844 L 249.859375 238.214844 L 249.484375 237.839844 L 249.109375 237.839844 L 248.734375 237.46875 L 247.984375 237.46875 L 247.609375 237.09375 L 247.234375 237.09375 L 246.859375 236.71875 L 246.484375 236.71875 L 246.109375 236.34375 L 245.738281 236.34375 L 245.363281 235.96875 L 244.613281 235.96875 L 243.863281 235.222656 L 243.488281 235.222656 L 243.113281 234.847656 L 242.738281 234.847656 L 242.363281 234.472656 L 241.988281 234.472656 L 241.613281 234.097656 L 241.238281 234.097656 L 240.863281 233.722656 L 240.488281 233.722656 L 240.113281 233.351562 L 239.742188 233.351562 L 239.367188 232.976562 L 238.992188 232.976562 L 238.617188 232.601562 L 238.242188 232.601562 L 237.867188 232.226562 L 237.492188 232.226562 L 236.742188 231.480469 L 236.367188 231.480469 L 235.992188 231.105469 L 235.617188 231.105469 L 235.242188 230.730469 L 234.867188 230.730469 L 234.117188 229.980469 L 233.746094 229.980469 L 233.371094 229.609375 L 232.996094 229.609375 L 231.871094 228.484375 L 232.246094 228.109375 L 232.246094 227.363281 L 232.621094 226.988281 L 232.621094 226.613281 L 232.996094 226.238281 L 232.996094 225.492188 L 233.371094 225.117188 L 233.371094 224.742188 L 233.746094 224.367188 L 233.746094 223.621094 L 234.117188 223.246094 L 234.117188 222.871094 L 234.492188 222.496094 L 234.492188 221.746094 L 234.867188 221.375 L 234.867188 220.625 L 235.242188 220.25 L 235.242188 219.875 L 235.617188 219.503906 L 235.617188 218.753906 L 235.992188 218.378906 L 235.992188 217.632812 L 236.367188 217.257812 L 236.367188 216.507812 L 236.742188 216.132812 L 236.742188 215.757812 L 237.117188 215.386719 L 237.117188 214.636719 L 237.492188 214.261719 L 237.492188 213.140625 L 237.867188 212.765625 L 237.867188 212.015625 L 238.242188 211.644531 L 238.242188 210.894531 L 238.617188 210.519531 L 238.617188 209.398438 L 238.992188 209.023438 L 238.992188 207.898438 L 239.367188 207.527344 L 239.367188 206.777344 L 239.742188 206.402344 L 239.742188 205.28125 L 240.113281 204.90625 L 240.113281 204.15625 L 240.488281 203.78125 L 240.488281 202.285156 L 240.863281 201.910156 L 240.863281 200.789062 L 241.238281 200.414062 L 241.238281 199.292969 L 240.863281 198.917969 L 240.863281 200.039062 L 240.488281 200.414062 L 240.488281 200.789062 L 240.113281 201.164062 L 240.113281 201.910156 L 239.742188 202.285156 L 239.742188 203.035156 L 239.367188 203.410156 L 239.367188 203.78125 L 238.992188 204.15625 L 238.992188 204.90625 L 238.617188 205.28125 L 238.617188 206.027344 L 238.242188 206.402344 L 238.242188 206.777344 L 237.867188 207.152344 L 237.867188 207.898438 L 237.492188 208.273438 L 237.492188 209.023438 L 237.117188 209.398438 L 237.117188 209.769531 L 236.742188 210.144531 L 236.742188 210.519531 L 236.367188 210.894531 L 236.367188 211.644531 L 235.992188 212.015625 L 235.992188 212.390625 L 235.617188 212.765625 L 235.617188 213.140625 L 235.242188 213.515625 L 235.242188 214.261719 L 234.867188 214.636719 L 234.867188 215.011719 L 234.492188 215.386719 L 234.492188 215.757812 L 234.117188 216.132812 L 234.117188 216.882812 L 233.746094 217.257812 L 233.746094 217.632812 L 233.371094 218.003906 L 233.371094 218.378906 L 232.996094 218.753906 L 232.996094 219.128906 L 232.621094 219.503906 L 232.621094 219.875 L 232.246094 220.25 L 232.246094 220.625 L 231.871094 221 L 231.871094 221.746094 L 231.496094 222.121094 L 231.496094 222.496094 L 231.121094 222.871094 L 231.121094 223.246094 L 230.746094 223.621094 L 230.746094 223.992188 L 230.371094 224.367188 L 230.371094 224.742188 L 229.996094 225.117188 L 229.996094 225.492188 L 229.621094 225.863281 L 229.621094 226.238281 L 229.246094 226.613281 L 229.246094 226.988281 L 228.871094 227.363281 L 228.871094 227.734375 L 228.496094 228.109375 L 228.496094 228.484375 L 228.121094 228.859375 L 228.121094 229.234375 L 227.75 229.609375 L 227.75 230.355469 L 227 231.105469 L 227 231.480469 L 226.625 231.851562 L 226.625 232.226562 L 226.25 232.601562 L 226.25 232.976562 L 225.875 233.351562 L 225.875 233.722656 L 225.5 234.097656 L 225.5 234.472656 L 225.125 234.847656 L 225.125 235.222656 L 224.75 235.597656 L 224.75 235.96875 L 224.375 236.34375 L 224.375 236.71875 L 224 237.09375 L 224 237.46875 L 223.625 237.839844 L 223.625 238.214844 L 223.25 238.589844 L 223.25 238.964844 L 222.5 239.710938 L 222.5 240.085938 L 222.125 240.460938 L 222.125 240.835938 L 221.753906 241.210938 L 221.753906 241.585938 L 221.378906 241.957031 L 221.378906 242.332031 L 221.003906 242.707031 L 221.003906 243.082031 L 220.253906 243.828125 L 220.253906 244.203125 L 219.878906 244.578125 L 219.878906 244.953125 L 219.503906 245.328125 L 219.503906 245.699219 L 218.753906 246.449219 L 218.753906 246.824219 L 218.378906 247.199219 L 218.378906 247.574219 L 218.003906 247.945312 L 218.003906 248.320312 L 217.253906 249.070312 L 217.253906 249.445312 L 216.878906 249.816406 L 216.878906 250.191406 L 216.128906 250.941406 L 216.128906 251.316406 L 215.757812 251.6875 L 215.757812 252.0625 L 215.007812 252.8125 L 215.007812 253.1875 L 214.632812 253.5625 L 214.632812 253.933594 L 213.882812 254.683594 L 213.882812 255.058594 L 213.507812 255.433594 L 213.507812 255.804688 L 212.757812 256.554688 L 212.757812 256.929688 L 212.007812 257.675781 L 212.007812 258.050781 L 211.257812 258.800781 L 211.257812 259.175781 L 210.507812 259.921875 L 210.507812 260.296875 L 209.761719 261.046875 L 209.761719 261.421875 L 209.011719 262.167969 L 209.011719 262.542969 L 207.886719 263.664062 L 207.886719 264.039062 L 207.136719 264.789062 L 207.136719 265.164062 L 206.386719 265.910156 L 206.386719 266.285156 L 205.261719 267.410156 L 205.261719 267.78125 L 204.136719 268.90625 L 204.136719 269.28125 L 203.015625 270.402344 L 203.015625 270.777344 L 201.515625 272.273438 L 201.515625 272.648438 L 200.390625 273.769531 L 200.765625 273.769531 L 201.140625 274.144531 L 202.265625 274.144531 L 202.640625 274.519531 L 203.765625 274.519531 L 204.136719 274.894531 L 205.636719 274.894531 L 206.011719 275.269531 L 207.511719 275.269531 L 207.886719 275.640625 L 209.011719 275.640625 L 209.386719 276.015625 L 210.882812 276.015625 L 211.257812 276.390625 L 212.757812 276.390625 L 213.132812 276.765625 L 214.632812 276.765625 L 215.007812 277.140625 L 216.503906 277.140625 L 216.878906 277.515625 L 218.378906 277.515625 L 218.753906 277.886719 L 219.878906 277.886719 L 220.253906 278.261719 L 222.125 278.261719 L 222.5 278.636719 L 224 278.636719 L 224.375 279.011719 L 225.875 279.011719 L 226.25 279.386719 L 228.121094 279.386719 L 228.496094 279.757812 L 230.371094 279.757812 L 230.746094 280.132812 L 232.246094 280.132812 L 232.621094 280.507812 L 234.492188 280.507812 L 234.867188 280.882812 L 236.367188 280.882812 L 236.742188 281.257812 L 238.617188 281.257812 L 238.992188 281.628906 L 240.863281 281.628906 L 241.238281 282.003906 L 243.113281 282.003906 L 243.488281 282.378906 L 245.363281 282.378906 L 245.738281 282.753906 L 247.984375 282.753906 L 248.359375 283.128906 L 250.609375 283.128906 L 250.984375 283.503906 L 253.230469 283.503906 L 253.605469 283.875 L 255.480469 283.875 L 255.855469 284.25 L 258.476562 284.25 L 258.851562 284.625 L 261.101562 284.625 L 261.476562 285 L 263.726562 285 L 264.097656 285.375 L 266.722656 285.375 L 267.097656 285.746094 L 270.09375 285.746094 L 270.46875 286.121094 L 273.09375 286.121094 L 273.46875 286.496094 L 276.464844 286.496094 L 276.839844 286.871094 L 280.214844 286.871094 L 280.589844 287.246094 L 284.335938 287.246094 L 284.710938 287.617188 L 285.085938 287.246094 L 285.460938 287.617188 L 294.078125 287.617188 L 294.453125 287.246094 L 297.828125 287.246094 L 298.203125 286.871094 L 300.449219 286.871094 L 300.824219 286.496094 L 302.699219 286.496094 L 303.074219 286.121094 L 304.199219 286.121094 L 304.574219 285.746094 L 305.699219 285.746094 L 306.070312 285.375 L 306.820312 285.375 L 307.195312 285 L 308.320312 285 L 308.695312 284.625 L 309.445312 284.625 L 309.820312 284.25 L 310.195312 284.25 L 310.570312 283.875 L 311.320312 283.875 L 311.695312 283.503906 L 312.066406 283.503906 L 312.441406 283.128906 L 313.191406 283.128906 L 313.566406 282.753906 L 313.941406 282.753906 L 314.316406 282.378906 L 314.691406 282.378906 L 315.066406 282.003906 L 315.441406 282.003906 L 315.816406 281.628906 L 316.191406 281.628906 L 316.566406 281.257812 L 316.941406 281.257812 L 317.316406 280.882812 L 317.691406 280.882812 L 318.0625 280.507812 L 318.4375 280.507812 L 319.1875 279.757812 L 319.5625 279.757812 L 319.9375 279.386719 L 320.3125 279.386719 L 321.0625 278.636719 L 321.4375 278.636719 L 322.5625 277.515625 L 322.9375 277.515625 L 324.058594 276.390625 L 324.433594 276.390625 L 325.933594 274.894531 L 326.308594 274.894531 L 330.804688 270.402344 L 330.804688 270.027344 L 333.054688 267.78125 L 333.054688 267.410156 L 334.179688 266.285156 L 334.179688 265.910156 L 334.929688 265.164062 L 334.929688 264.789062 L 335.679688 264.039062 L 335.679688 263.664062 L 336.425781 262.917969 L 336.425781 262.542969 L 336.800781 262.167969 L 336.800781 261.792969 L 337.550781 261.046875 L 337.550781 260.671875 L 337.925781 260.296875 L 337.925781 259.921875 L 338.300781 259.550781 L 338.300781 259.175781 L 338.675781 258.800781 L 338.675781 258.425781 L 339.050781 258.050781 L 339.050781 257.675781 L 339.425781 257.304688 L 339.425781 256.929688 L 339.800781 256.554688 L 339.800781 256.179688 L 340.175781 255.804688 L 340.175781 255.433594 L 340.550781 255.058594 L 340.550781 254.683594 L 340.925781 254.308594 L 340.925781 253.933594 L 341.300781 253.5625 L 341.300781 252.8125 L 341.675781 252.4375 L 341.675781 252.0625 L 342.046875 251.6875 L 342.046875 251.316406 L 342.421875 250.941406 L 342.421875 250.191406 L 342.796875 249.816406 L 342.796875 249.070312 L 343.171875 248.695312 L 343.171875 247.945312 L 343.546875 247.574219 L 343.546875 246.824219 L 343.921875 246.449219 L 343.921875 245.699219 L 344.296875 245.328125 L 344.296875 244.578125 L 344.671875 244.203125 L 344.671875 243.082031 L 345.046875 242.707031 L 345.046875 241.957031 L 345.421875 241.585938 L 345.421875 240.460938 L 345.796875 240.085938 L 345.796875 238.964844 L 346.171875 238.589844 L 346.171875 237.09375 L 346.546875 236.71875 L 346.546875 235.597656 L 346.921875 235.222656 L 346.921875 233.351562 L 347.296875 232.976562 L 347.296875 231.105469 L 347.671875 230.730469 L 347.671875 228.859375 L 348.042969 228.484375 L 348.042969 225.492188 L 348.417969 225.117188 L 348.417969 220.25 L 348.792969 219.875 L 348.792969 211.269531 L 348.417969 210.894531 L 348.417969 206.402344 L 348.042969 206.027344 L 348.042969 204.15625 L 347.671875 203.78125 L 347.671875 202.285156 L 347.296875 201.910156 L 347.296875 200.789062 L 346.921875 200.414062 L 346.921875 199.667969 L 346.546875 199.292969 L 346.546875 198.917969 L 346.171875 198.542969 L 346.171875 198.167969 L 345.796875 197.792969 L 345.796875 197.421875 L 345.421875 197.046875 L 345.421875 196.671875 L 344.671875 195.921875 L 344.671875 195.550781 L 342.046875 192.929688 L 341.675781 192.929688 L 340.925781 192.179688 L 340.550781 192.179688 L 339.800781 191.433594 L 339.425781 191.433594 L 339.050781 191.058594 L 338.675781 191.058594 L 338.300781 190.683594 L 337.925781 190.683594 L 337.550781 190.308594 L 337.175781 190.308594 L 336.800781 189.933594 L 336.425781 189.933594 L 336.050781 189.5625 L 335.679688 189.5625 L 335.304688 189.1875 L 334.929688 189.1875 L 334.554688 188.8125 L 334.179688 188.8125 L 333.804688 188.4375 L 333.429688 188.4375 L 333.054688 188.0625 L 332.679688 188.0625 L 332.304688 187.691406 L 331.929688 187.691406 L 331.554688 187.316406 L 330.804688 187.316406 L 330.429688 186.941406 L 330.054688 186.941406 L 329.683594 186.566406 L 329.308594 186.566406 L 328.933594 186.191406 L 328.558594 186.191406 L 328.183594 185.816406 L 327.433594 185.816406 L 327.058594 185.445312 L 326.683594 185.445312 L 326.308594 185.070312 L 325.558594 185.070312 L 325.183594 184.695312 L 324.808594 184.695312 L 324.433594 184.320312 L 324.058594 184.320312 L 323.6875 183.945312 L 322.9375 183.945312 L 322.5625 183.574219 L 322.1875 183.574219 L 321.8125 183.199219 L 321.0625 183.199219 L 320.6875 182.824219 L 320.3125 182.824219 L 319.9375 182.449219 L 319.1875 182.449219 L 318.8125 182.074219 L 318.4375 182.074219 L 318.0625 181.703125 L 317.316406 181.703125 L 316.941406 181.328125 L 316.191406 181.328125 L 315.816406 180.953125 L 315.441406 180.953125 L 315.066406 180.578125 L 314.316406 180.578125 L 313.941406 180.203125 L 313.566406 180.203125 L 313.191406 179.828125 L 312.441406 179.828125 L 312.066406 179.457031 L 311.320312 179.457031 L 310.945312 179.082031 L 310.570312 179.082031 L 310.195312 178.707031 L 309.445312 178.707031 L 309.070312 178.332031 L 308.320312 178.332031 L 307.945312 177.957031 L 307.195312 177.957031 L 306.820312 177.585938 L 306.445312 177.585938 L 306.070312 177.210938 L 305.324219 177.210938 L 304.949219 176.835938 L 304.199219 176.835938 L 303.824219 176.460938 L 303.449219 176.460938 L 303.074219 176.085938 L 302.324219 176.085938 L 301.949219 175.714844 L 301.199219 175.714844 L 300.824219 175.339844 L 300.074219 175.339844 L 299.703125 174.964844 L 299.328125 174.964844 L 298.953125 174.589844 L 298.203125 174.589844 L 297.828125 174.214844 L 297.078125 174.214844 L 296.703125 173.839844 L 296.328125 173.839844 L 295.953125 173.46875 L 295.203125 173.46875 L 294.828125 173.09375 L 294.078125 173.09375 L 293.707031 172.71875 L 293.332031 172.71875 L 292.957031 172.34375 L 292.207031 172.34375 L 291.832031 171.96875 L 291.082031 171.96875 L 290.707031 171.597656 L 289.957031 171.597656 L 289.582031 171.222656 L 288.832031 171.222656 L 288.457031 170.847656 L 288.082031 170.847656 L 287.710938 170.472656 L 286.960938 170.472656 L 286.585938 170.097656 L 286.210938 170.097656 L 285.835938 169.726562 L 285.085938 169.726562 L 284.710938 169.351562 L 283.960938 169.351562 L 283.585938 168.976562 L 283.210938 168.976562 L 282.835938 168.601562 L 282.085938 168.601562 L 281.714844 168.226562 L 280.964844 168.226562 L 280.589844 167.851562 L 280.214844 167.851562 L 279.839844 167.480469 L 279.089844 167.480469 L 278.714844 167.105469 L 278.339844 167.105469 L 277.964844 166.730469 L 277.214844 166.730469 L 276.839844 166.355469 L 276.464844 166.355469 L 276.089844 165.980469 L 275.34375 165.980469 L 274.96875 165.609375 L 274.59375 165.609375 L 274.21875 165.234375 L 273.46875 165.234375 L 273.09375 164.859375 L 272.71875 164.859375 L 272.34375 164.484375 L 271.59375 164.484375 L 271.21875 164.109375 L 270.84375 164.109375 L 270.46875 163.738281 L 269.722656 163.738281 L 269.347656 163.363281 L 268.972656 163.363281 L 268.597656 162.988281 L 268.222656 162.988281 L 267.847656 162.613281 L 267.472656 162.613281 L 267.097656 162.238281 L 266.347656 162.238281 L 265.972656 161.863281 L 265.597656 161.863281 L 265.222656 161.492188 L 264.847656 161.492188 L 264.472656 161.117188 L 264.097656 161.117188 L 263.726562 160.742188 L 263.351562 160.742188 L 262.976562 160.367188 L 262.601562 160.367188 L 262.226562 159.992188 L 261.851562 159.992188 L 261.476562 159.621094 L 261.101562 159.621094 L 260.726562 159.246094 L 260.351562 159.246094 L 259.976562 158.871094 L 259.601562 158.871094 L 259.226562 158.496094 L 258.851562 158.496094 L 258.476562 158.121094 L 258.101562 158.121094 L 257.355469 157.375 L 256.980469 157.375 L 256.230469 156.625 L 255.855469 156.625 L 253.230469 154.003906 L 253.230469 153.632812 L 252.855469 153.257812 L 252.855469 152.882812 L 252.480469 152.507812 L 252.480469 151.761719 L 252.105469 151.386719 L 252.105469 149.515625 L 251.734375 149.140625 L 251.734375 146.519531 L 252.105469 146.144531 L 252.105469 143.898438 L 252.480469 143.527344 L 252.480469 142.402344 L 252.855469 142.027344 L 252.855469 141.28125 L 253.230469 140.90625 L 253.230469 140.15625 L 253.605469 139.785156 L 253.605469 139.410156 L 253.980469 139.035156 L 253.980469 138.660156 L 254.355469 138.285156 L 254.355469 137.910156 L 254.730469 137.539062 L 254.730469 137.164062 L 255.105469 136.789062 L 255.105469 136.414062 L 255.855469 135.667969 L 255.855469 135.292969 L 256.230469 134.917969 L 256.230469 134.542969 L 256.980469 133.796875 L 256.980469 133.421875 L 258.101562 132.296875 L 258.101562 131.921875 L 262.976562 127.058594 L 263.351562 127.058594 L 264.847656 125.5625 L 265.222656 125.5625 L 266.347656 124.4375 L 266.722656 124.4375 L 267.472656 123.691406 L 267.847656 123.691406 L 268.597656 122.941406 L 268.972656 122.941406 L 269.722656 122.191406 L 270.09375 122.191406 L 270.84375 121.445312 L 271.21875 121.445312 L 271.59375 121.070312 L 271.96875 121.070312 L 272.34375 120.695312 L 272.71875 120.695312 L 273.09375 120.320312 L 273.46875 120.320312 L 274.21875 119.574219 L 274.59375 119.574219 L 274.96875 119.199219 L 275.34375 119.199219 L 275.71875 118.824219 L 276.089844 118.824219 L 276.464844 118.449219 L 276.839844 118.449219 L 277.214844 118.074219 L 277.589844 118.074219 L 277.964844 117.703125 L 278.714844 117.703125 L 279.089844 117.328125 L 279.464844 117.328125 L 279.839844 116.953125 L 280.214844 116.953125 L 280.589844 116.578125 L 282.460938 116.578125 L 282.835938 116.203125 L 285.085938 116.203125 L 285.460938 115.832031 L 289.207031 115.832031 L 289.582031 115.457031 L 301.199219 115.457031 L 301.574219 115.832031 L 304.949219 115.832031 L 305.324219 116.203125 L 308.695312 116.203125 L 309.070312 116.578125 L 310.945312 116.578125 L 311.320312 116.953125 L 313.191406 116.953125 L 313.566406 117.328125 L 315.066406 117.328125 L 315.441406 117.703125 L 316.941406 117.703125 L 317.316406 118.074219 L 318.8125 118.074219 L 319.1875 118.449219 L 320.3125 118.449219 L 320.6875 118.824219 L 321.8125 118.824219 L 322.1875 119.199219 L 323.3125 119.199219 L 323.6875 119.574219 L 324.433594 119.574219 L 324.808594 119.945312 L 325.933594 119.945312 L 326.308594 120.320312 L 325.933594 120.695312 L 314.316406 120.695312 L 313.941406 121.070312 L 303.449219 121.070312 L 303.074219 121.445312 L 296.703125 121.445312 L 296.328125 121.820312 L 291.082031 121.820312 L 290.707031 122.191406 L 286.210938 122.191406 L 285.835938 122.566406 L 282.835938 122.566406 L 282.460938 122.941406 L 282.085938 122.941406 L 281.714844 123.316406 L 281.339844 123.316406 L 280.964844 123.691406 L 280.214844 123.691406 L 279.839844 124.0625 L 279.464844 124.0625 L 279.089844 124.4375 L 278.714844 124.4375 L 278.339844 124.8125 L 277.964844 124.8125 L 277.589844 125.1875 L 277.214844 125.1875 L 276.839844 125.5625 L 276.464844 125.5625 L 276.089844 125.933594 L 275.71875 125.933594 L 274.96875 126.683594 L 274.59375 126.683594 L 273.84375 127.433594 L 273.46875 127.433594 L 272.71875 128.179688 L 272.34375 128.179688 L 271.21875 129.304688 L 270.84375 129.304688 L 270.09375 130.050781 L 269.722656 130.050781 L 267.472656 132.296875 L 267.097656 132.296875 L 267.097656 132.671875 L 265.222656 134.542969 L 265.222656 134.917969 L 263.726562 136.414062 L 263.726562 136.789062 L 262.976562 137.539062 L 262.976562 137.910156 L 262.601562 138.285156 L 262.601562 138.660156 L 261.851562 139.410156 L 261.851562 139.785156 L 261.476562 140.15625 L 261.476562 140.53125 L 261.101562 140.90625 L 261.101562 141.28125 L 260.726562 141.65625 L 260.726562 142.402344 L 260.351562 142.777344 L 260.351562 143.527344 L 259.976562 143.898438 L 259.976562 144.648438 L 259.601562 145.023438 L 259.601562 146.894531 L 259.226562 147.269531 L 259.226562 149.515625 L 259.601562 149.886719 L 259.601562 151.011719 L 259.976562 151.386719 L 259.976562 151.761719 L 260.351562 151.761719 L 260.351562 150.636719 L 260.726562 150.261719 L 260.726562 149.515625 L 261.101562 149.140625 L 261.101562 148.765625 L 261.476562 148.390625 L 261.476562 148.015625 L 261.851562 147.644531 L 261.851562 147.269531 L 262.226562 146.894531 L 262.226562 146.519531 L 262.976562 145.773438 L 262.976562 145.398438 L 264.472656 143.898438 L 264.472656 143.527344 L 270.09375 137.910156 L 270.46875 137.910156 L 271.21875 137.164062 L 271.59375 137.164062 L 272.34375 136.414062 L 272.71875 136.414062 L 273.46875 135.667969 L 273.84375 135.667969 L 274.96875 134.542969 L 275.34375 134.542969 L 275.71875 134.167969 L 276.089844 134.167969 L 276.839844 133.421875 L 277.214844 133.421875 L 277.589844 133.046875 L 277.964844 133.046875 L 278.339844 132.671875 L 278.714844 132.671875 L 279.089844 132.296875 L 279.464844 132.296875 L 279.839844 131.921875 L 280.214844 131.921875 L 280.589844 131.550781 L 280.964844 131.550781 L 281.339844 131.175781 L 281.714844 131.175781 L 282.085938 130.800781 L 282.835938 130.800781 L 283.210938 130.425781 L 283.960938 130.425781 L 284.335938 130.050781 L 285.085938 130.050781 L 285.460938 129.679688 L 286.210938 129.679688 L 286.585938 129.304688 L 287.710938 129.304688 L 288.082031 128.929688 L 289.207031 128.929688 L 289.582031 128.554688 L 291.082031 128.554688 L 291.457031 128.179688 L 292.957031 128.179688 L 293.332031 127.808594 L 295.203125 127.808594 L 295.578125 127.433594 L 298.578125 127.433594 L 298.953125 127.058594 L 303.449219 127.058594 L 303.824219 126.683594 L 314.316406 126.683594 L 314.691406 127.058594 L 319.9375 127.058594 L 320.3125 127.433594 L 322.9375 127.433594 L 323.3125 127.808594 L 325.183594 127.808594 L 325.558594 128.179688 L 327.433594 128.179688 L 327.808594 128.554688 L 328.933594 128.554688 L 329.308594 128.929688 L 330.804688 128.929688 L 331.179688 129.304688 L 331.929688 129.304688 L 332.304688 129.679688 L 333.054688 129.679688 L 333.054688 129.304688 L 333.429688 128.929688 L 333.429688 127.433594 L 333.804688 127.058594 L 333.804688 125.1875 L 334.179688 124.8125 L 334.179688 122.941406 L 334.554688 122.566406 L 334.554688 120.695312 L 334.929688 120.320312 L 334.929688 118.074219 L 335.304688 117.703125 L 335.304688 115.832031 L 335.679688 115.457031 L 335.679688 113.210938 L 336.050781 112.835938 L 336.050781 110.589844 L 336.425781 110.214844 L 336.425781 107.96875 L 336.800781 107.597656 L 336.800781 105.351562 L 337.175781 104.976562 L 337.175781 103.105469 L 337.550781 102.730469 L 337.550781 100.484375 L 337.925781 100.109375 L 337.925781 98.238281 L 338.300781 97.867188 L 338.300781 96.742188 L 338.675781 96.367188 L 338.675781 91.128906 L 339.050781 90.753906 L 338.675781 90.378906 L 335.304688 90.378906 L 334.929688 90.003906 L 329.683594 90.003906 L 329.308594 89.632812 L 310.570312 89.632812 L 310.195312 90.003906 L 304.199219 90.003906 L 303.824219 90.378906 L 300.449219 90.378906 L 300.074219 90.753906 L 296.703125 90.753906 L 296.328125 91.128906 L 293.707031 91.128906 L 293.332031 91.503906 L 291.457031 91.503906 L 291.082031 91.878906 L 288.832031 91.878906 L 288.457031 92.25 L 286.960938 92.25 L 286.585938 92.625 L 285.085938 92.625 L 284.710938 93 L 283.210938 93 L 282.835938 93.375 L 281.339844 93.375 L 280.964844 93.75 L 279.839844 93.75 L 279.464844 94.121094 L 278.339844 94.121094 L 277.964844 94.496094 L 276.839844 94.496094 L 276.464844 94.871094 L 275.34375 94.871094 L 274.96875 95.246094 L 274.21875 95.246094 L 273.84375 95.621094 L 272.71875 95.621094 L 272.34375 95.992188 L 271.59375 95.992188 L 271.21875 96.367188 L 270.09375 96.367188 L 269.722656 96.742188 L 268.972656 96.742188 L 268.597656 97.117188 L 267.847656 97.117188 L 267.472656 97.492188 L 266.722656 97.492188 L 266.347656 97.867188 L 265.972656 97.867188 L 265.597656 98.238281 L 264.847656 98.238281 L 264.472656 98.613281 L 263.726562 98.613281 L 263.351562 98.988281 L 262.976562 98.988281 L 262.601562 99.363281 L 261.851562 99.363281 L 261.476562 99.738281 L 261.101562 99.738281 L 260.726562 100.109375 L 259.976562 100.109375 L 259.601562 100.484375 L 258.851562 100.484375 L 258.476562 100.859375 L 258.101562 100.859375 L 257.730469 101.234375 L 256.980469 101.234375 L 256.605469 101.609375 L 256.230469 101.609375 L 255.855469 101.980469 L 255.480469 101.980469 L 255.105469 102.355469 L 254.730469 102.355469 L 254.355469 102.730469 L 253.605469 102.730469 L 253.230469 103.105469 L 252.855469 103.105469 L 252.480469 103.480469 L 252.105469 103.480469 L 251.734375 103.855469 L 251.359375 103.855469 L 250.984375 104.226562 L 250.609375 104.226562 L 250.234375 104.601562 L 249.859375 104.601562 L 249.109375 105.351562 L 248.734375 105.351562 L 248.359375 105.726562 L 247.609375 105.726562 L 247.234375 106.097656 L 246.859375 106.097656 L 246.484375 106.472656 L 246.109375 106.472656 L 245.738281 106.847656 L 245.738281 107.222656 L 245.363281 107.597656 L 245.363281 108.34375 L 244.988281 108.71875 L 244.988281 109.84375 L 244.613281 110.214844 L 244.613281 110.964844 L 244.238281 111.339844 L 244.238281 112.460938 L 243.863281 112.835938 L 243.863281 113.585938 L 243.488281 113.957031 L 243.488281 114.707031 L 243.113281 115.082031 L 243.113281 116.203125 L 242.738281 116.578125 L 242.738281 117.703125 L 242.363281 118.074219 L 242.363281 118.824219 L 241.988281 119.199219 L 241.988281 120.320312 L 241.613281 120.695312 L 241.613281 121.445312 L 241.238281 121.820312 L 241.238281 122.941406 L 240.863281 123.316406 L 240.863281 124.0625 L 240.488281 124.4375 L 240.488281 125.1875 L 240.113281 125.5625 L 240.113281 126.308594 L 239.742188 126.683594 L 239.367188 126.683594 L 238.992188 126.308594 L 238.242188 126.308594 L 237.867188 125.933594 L 237.492188 125.933594 L 237.117188 125.5625 L 236.367188 125.5625 L 235.992188 125.1875 L 235.617188 125.1875 L 235.242188 124.8125 L 234.867188 124.8125 L 234.492188 124.4375 L 233.746094 124.4375 L 233.371094 124.0625 L 232.996094 124.0625 L 232.621094 123.691406 L 231.871094 123.691406 L 231.496094 123.316406 L 231.121094 123.316406 L 230.746094 122.941406 L 229.996094 122.941406 L 229.621094 122.566406 L 229.246094 122.566406 L 228.871094 122.191406 L 228.121094 122.191406 L 227.75 121.820312 L 227.375 121.820312 L 227 121.445312 L 226.25 121.445312 L 225.875 121.070312 L 225.5 121.070312 L 225.125 120.695312 L 224.375 120.695312 L 224 120.320312 L 223.25 120.320312 L 222.875 119.945312 L 222.125 119.945312 L 221.753906 119.574219 L 221.378906 119.574219 L 221.003906 119.199219 L 220.253906 119.199219 L 219.878906 118.824219 L 219.128906 118.824219 L 218.753906 118.449219 L 218.003906 118.449219 L 217.628906 118.074219 L 216.878906 118.074219 L 216.503906 117.703125 L 215.757812 117.703125 L 215.382812 117.328125 L 214.632812 117.328125 L 214.257812 116.953125 L 213.507812 116.953125 L 213.132812 116.578125 L 212.382812 116.578125 L 212.007812 116.203125 L 211.257812 116.203125 L 210.882812 115.832031 L 210.507812 115.832031 L 210.132812 115.457031 L 209.011719 115.457031 L 208.636719 115.082031 L 207.886719 115.082031 L 207.511719 114.707031 L 206.761719 114.707031 L 206.386719 114.332031 L 205.636719 114.332031 L 205.261719 113.957031 L 204.511719 113.957031 L 204.136719 113.585938 L 203.015625 113.585938 L 202.640625 113.210938 L 201.515625 113.210938 L 201.140625 112.835938 L 200.390625 112.835938 L 200.015625 112.460938 L 198.890625 112.460938 L 198.515625 112.085938 L 197.769531 112.085938 L 197.394531 111.714844 L 196.269531 111.714844 L 195.894531 111.339844 L 194.769531 111.339844 L 194.394531 110.964844 L 193.644531 110.964844 L 193.269531 110.589844 L 192.144531 110.589844 L 191.773438 110.214844 L 190.273438 110.214844 L 189.898438 109.84375 L 188.773438 109.84375 L 188.398438 109.46875 L 186.898438 109.46875 L 186.523438 109.09375 L 185.402344 109.09375 L 185.027344 108.71875 L 183.527344 108.71875 L 183.152344 108.34375 L 181.277344 108.34375 L 180.902344 107.96875 L 179.40625 107.96875 L 179.03125 107.597656 L 177.15625 107.597656 L 176.78125 107.222656 L 174.53125 107.222656 L 174.15625 106.847656 L 171.535156 106.847656 L 171.160156 106.472656 L 168.535156 106.472656 L 168.160156 106.097656 L 164.414062 106.097656 L 164.039062 105.726562 L 159.167969 105.726562 L 158.792969 105.351562 L 142.679688 105.351562 L 140.054688 107.96875 L 140.054688 108.34375 L 138.554688 109.84375 L 138.554688 110.214844 L 137.058594 111.714844 L 137.058594 112.085938 L 135.933594 113.210938 L 135.933594 113.585938 L 134.433594 115.082031 L 134.433594 115.457031 L 133.683594 116.203125 L 133.683594 116.578125 L 132.183594 118.074219 L 132.183594 118.449219 L 131.0625 119.574219 L 131.0625 119.945312 L 130.3125 120.695312 L 130.3125 121.070312 L 129.5625 121.820312 L 129.5625 122.191406 L 128.8125 122.941406 L 128.8125 123.316406 L 127.6875 124.4375 L 127.6875 124.8125 L 126.5625 125.933594 L 126.5625 126.308594 L 126.1875 126.683594 L 126.1875 127.058594 L 125.441406 127.808594 L 125.441406 128.179688 L 124.691406 128.929688 L 124.691406 129.304688 L 123.941406 130.050781 L 123.941406 130.425781 L 123.566406 130.800781 L 123.566406 131.175781 L 122.816406 131.921875 L 122.816406 132.296875 L 122.066406 133.046875 L 122.066406 133.421875 L 121.691406 133.796875 L 121.691406 134.167969 L 120.941406 134.917969 L 120.941406 135.292969 L 120.191406 136.039062 L 120.191406 136.414062 L 119.820312 136.789062 L 119.820312 137.164062 L 119.070312 137.910156 L 119.070312 138.285156 L 118.695312 138.660156 L 118.695312 139.035156 L 118.320312 139.410156 L 118.320312 139.785156 L 117.945312 140.15625 L 117.945312 140.53125 L 117.195312 141.28125 L 117.195312 141.65625 L 116.820312 142.027344 L 116.820312 142.402344 L 116.445312 142.777344 L 116.445312 143.152344 L 116.070312 143.527344 L 116.070312 143.898438 L 115.695312 144.273438 L 115.695312 144.648438 L 115.320312 145.023438 L 115.320312 145.398438 L 114.570312 146.144531 L 114.570312 146.519531 L 114.195312 146.894531 L 114.195312 147.269531 L 113.824219 147.644531 L 113.824219 148.015625 L 113.449219 148.390625 L 113.449219 148.765625 L 113.074219 149.140625 L 113.074219 149.515625 L 112.699219 149.886719 L 112.699219 150.261719 L 112.324219 150.636719 L 112.324219 151.386719 L 111.949219 151.761719 L 111.949219 152.132812 L 111.574219 152.507812 L 111.574219 152.882812 L 111.199219 153.257812 L 111.199219 153.632812 L 110.824219 154.003906 L 110.824219 154.378906 L 110.449219 154.753906 L 110.449219 155.503906 L 110.074219 155.875 L 110.074219 156.25 L 109.699219 156.625 L 109.699219 157 L 109.324219 157.375 L 109.324219 158.121094 L 108.949219 158.496094 L 108.949219 158.871094 L 108.574219 159.246094 L 108.574219 159.992188 L 108.199219 160.367188 L 108.199219 160.742188 L 107.828125 161.117188 L 107.828125 161.863281 L 107.453125 162.238281 L 107.453125 162.613281 L 107.078125 162.988281 L 107.078125 163.738281 L 106.703125 164.109375 L 106.703125 164.859375 L 106.328125 165.234375 L 106.328125 165.980469 L 105.953125 166.355469 L 105.953125 167.105469 L 105.578125 167.480469 L 105.578125 168.226562 L 105.203125 168.601562 L 105.203125 169.726562 L 104.828125 170.097656 L 104.828125 170.847656 L 104.453125 171.222656 L 104.453125 171.96875 L 104.078125 172.34375 L 104.078125 173.46875 L 103.703125 173.839844 L 103.703125 174.964844 L 103.328125 175.339844 L 103.328125 176.460938 L 102.953125 176.835938 L 102.953125 178.332031 L 102.578125 178.707031 L 102.578125 179.828125 L 102.203125 180.203125 L 102.203125 182.074219 L 101.832031 182.449219 L 101.832031 183.945312 L 101.457031 184.320312 L 101.457031 186.566406 L 101.082031 186.941406 L 101.082031 190.683594 L 100.707031 191.058594 L 100.707031 202.285156 L 101.082031 202.660156 L 101.082031 206.027344 L 101.457031 206.402344 L 101.457031 208.273438 L 101.832031 208.648438 L 101.832031 210.144531 L 102.203125 210.519531 L 102.203125 211.644531 L 102.578125 212.015625 L 102.578125 213.140625 L 102.953125 213.515625 L 102.953125 214.261719 L 103.328125 214.636719 L 103.328125 215.386719 L 103.703125 215.757812 L 103.703125 216.507812 L 104.078125 216.882812 L 104.078125 217.632812 L 104.453125 218.003906 L 104.453125 218.378906 L 104.828125 218.753906 L 104.828125 219.128906 L 105.203125 219.503906 L 105.203125 219.875 L 105.578125 220.25 L 105.578125 220.625 L 105.953125 221 L 105.953125 221.375 L 106.328125 221.746094 L 106.328125 222.121094 L 106.703125 222.496094 L 106.703125 222.871094 L 107.078125 223.246094 L 107.078125 223.621094 L 107.828125 224.367188 L 107.828125 224.742188 L 108.574219 225.492188 L 108.574219 225.863281 L 109.699219 226.988281 L 109.699219 227.363281 L 111.574219 229.234375 L 111.574219 229.609375 L 113.449219 231.480469 L 113.824219 231.480469 L 115.320312 232.976562 L 115.695312 232.976562 L 116.445312 233.722656 L 116.820312 233.722656 L 117.945312 234.847656 L 118.320312 234.847656 L 118.695312 235.222656 L 119.070312 235.222656 L 119.820312 235.96875 L 120.191406 235.96875 L 120.566406 236.34375 L 120.941406 236.34375 L 121.316406 236.71875 L 121.691406 236.71875 L 122.066406 237.09375 L 122.441406 237.09375 L 122.816406 237.46875 L 123.191406 237.46875 L 123.566406 237.839844 L 124.316406 237.839844 L 124.691406 238.214844 L 125.066406 238.214844 L 125.441406 238.589844 L 126.1875 238.589844 L 126.5625 238.964844 L 127.6875 238.964844 L 128.0625 239.339844 L 128.8125 239.339844 L 129.1875 239.710938 L 130.3125 239.710938 L 130.6875 240.085938 L 131.8125 240.085938 L 132.183594 240.460938 L 133.683594 240.460938 L 134.058594 240.835938 L 135.933594 240.835938 L 136.308594 241.210938 L 139.304688 241.210938 L 139.679688 241.585938 L 155.046875 241.585938 L 155.421875 241.210938 L 159.167969 241.210938 L 159.542969 240.835938 L 162.164062 240.835938 L 162.539062 240.460938 L 164.789062 240.460938 L 165.164062 240.085938 L 166.664062 240.085938 L 167.039062 239.710938 L 168.535156 239.710938 L 168.910156 239.339844 L 170.410156 239.339844 L 170.785156 238.964844 L 171.910156 238.964844 L 172.285156 238.589844 L 173.410156 238.589844 L 173.785156 238.214844 L 175.28125 238.214844 L 175.65625 237.839844 L 176.78125 237.839844 L 177.15625 237.46875 L 177.90625 237.46875 L 178.28125 237.09375 L 179.03125 237.09375 L 179.40625 236.71875 L 180.527344 236.71875 L 180.902344 236.34375 L 181.652344 236.34375 L 182.027344 235.96875 L 182.777344 235.96875 L 183.152344 235.597656 L 183.527344 235.597656 L 183.902344 235.222656 L 184.652344 235.222656 L 185.027344 234.847656 L 185.777344 234.847656 L 186.148438 234.472656 L 186.523438 234.472656 L 186.898438 234.097656 L 187.273438 234.097656 L 188.023438 233.351562 L 188.023438 232.976562 L 187.648438 232.601562 L 187.648438 229.234375 L 187.273438 228.859375 L 187.273438 226.988281 L 186.898438 226.613281 L 186.898438 225.117188 L 186.523438 224.742188 L 186.523438 222.871094 L 186.148438 222.496094 L 186.148438 221.375 L 185.777344 221 L 185.777344 219.503906 L 185.402344 219.128906 L 185.402344 218.003906 L 185.027344 217.632812 L 185.027344 216.132812 L 184.652344 215.757812 L 184.652344 214.636719 L 184.277344 214.261719 L 184.277344 213.140625 L 183.902344 212.765625 L 183.902344 212.015625 L 183.527344 211.644531 L 183.527344 210.519531 L 183.152344 210.144531 L 183.152344 209.398438 L 182.777344 209.023438 L 182.402344 209.023438 L 182.027344 208.648438 L 181.277344 208.648438 L 180.902344 208.273438 L 180.152344 208.273438 L 179.78125 207.898438 L 179.03125 207.898438 L 178.65625 207.527344 L 177.90625 207.527344 L 177.53125 207.152344 L 176.40625 207.152344 L 176.03125 206.777344 L 175.28125 206.777344 L 174.90625 206.402344 L 173.785156 206.402344 L 173.410156 206.027344 L 172.285156 206.027344 L 171.910156 205.65625 L 170.785156 205.65625 L 170.410156 205.28125 L 169.285156 205.28125 L 168.910156 204.90625 L 167.414062 204.90625 L 167.039062 204.53125 L 165.539062 204.53125 L 165.164062 204.15625 L 163.664062 204.15625 L 163.289062 203.78125 L 161.792969 203.78125 L 161.417969 203.410156 L 159.917969 203.410156 L 159.542969 203.035156 L 158.042969 203.035156 L 157.667969 202.660156 L 155.796875 202.660156 L 155.421875 202.285156 L 153.921875 202.285156 L 153.546875 201.910156 L 153.921875 201.539062 L 165.539062 201.539062 L 165.914062 201.910156 L 171.910156 201.910156 L 172.285156 202.285156 L 176.03125 202.285156 L 176.40625 202.660156 L 179.03125 202.660156 L 179.40625 203.035156 L 181.652344 203.035156 L 182.027344 203.410156 L 183.527344 203.410156 L 183.902344 203.78125 L 185.027344 203.78125 L 185.402344 204.15625 L 186.148438 204.15625 L 186.523438 204.53125 L 187.273438 204.53125 L 187.648438 204.90625 L 188.398438 204.90625 L 188.773438 205.28125 L 188.773438 205.65625 L 189.148438 206.027344 L 189.148438 207.152344 L 189.523438 207.527344 L 189.523438 209.023438 L 189.898438 209.398438 L 189.898438 210.894531 L 190.273438 211.269531 L 190.273438 212.765625 L 190.648438 213.140625 L 190.648438 215.011719 L 191.023438 215.386719 L 191.023438 217.257812 L 191.398438 217.632812 L 191.398438 219.875 L 191.773438 220.25 L 191.773438 222.496094 L 192.144531 222.871094 L 192.144531 225.117188 L 192.519531 225.492188 L 192.519531 228.484375 L 192.894531 228.859375 L 192.894531 231.851562 L 193.269531 232.226562 L 193.269531 234.472656 L 192.519531 235.222656 L 192.144531 235.222656 L 191.773438 235.597656 L 191.398438 235.597656 L 191.023438 235.96875 L 190.648438 235.96875 L 190.273438 236.34375 L 189.898438 236.34375 L 189.523438 236.71875 L 189.148438 236.71875 L 188.773438 237.09375 L 188.023438 237.09375 L 187.648438 237.46875 L 186.898438 237.46875 L 186.523438 237.839844 L 186.148438 237.839844 L 185.777344 238.214844 L 185.402344 238.214844 L 185.027344 238.589844 L 184.277344 238.589844 L 183.902344 238.964844 L 183.152344 238.964844 L 182.777344 239.339844 L 182.027344 239.339844 L 181.652344 239.710938 L 180.902344 239.710938 L 180.527344 240.085938 L 179.78125 240.085938 L 179.40625 240.460938 L 178.65625 240.460938 L 178.28125 240.835938 L 177.53125 240.835938 L 177.15625 241.210938 L 176.03125 241.210938 L 175.65625 241.585938 L 174.90625 241.585938 L 174.53125 241.957031 L 173.410156 241.957031 L 173.035156 242.332031 L 172.285156 242.332031 L 171.910156 242.707031 L 170.785156 242.707031 L 170.410156 243.082031 L 168.910156 243.082031 L 168.535156 243.457031 L 167.414062 243.457031 L 167.039062 243.828125 L 165.539062 243.828125 L 165.164062 244.203125 L 163.289062 244.203125 L 162.914062 244.578125 L 161.417969 244.578125 L 161.042969 244.953125 L 158.792969 244.953125 L 158.417969 245.328125 L 156.542969 245.328125 L 156.167969 245.699219 L 153.171875 245.699219 L 152.796875 246.074219 L 147.925781 246.074219 L 147.550781 246.449219 L 143.429688 246.449219 L 143.054688 246.074219 L 137.808594 246.074219 L 137.433594 245.699219 L 134.808594 245.699219 L 134.433594 245.328125 L 132.933594 245.328125 L 132.558594 244.953125 L 131.0625 244.953125 L 130.6875 244.578125 L 129.5625 244.578125 L 129.1875 244.203125 L 128.0625 244.203125 L 127.6875 243.828125 L 126.5625 243.828125 L 126.1875 243.457031 L 125.441406 243.457031 L 125.066406 243.082031 L 124.316406 243.082031 L 123.941406 242.707031 L 123.566406 242.707031 L 123.191406 242.332031 L 122.441406 242.332031 L 122.066406 241.957031 L 121.691406 241.957031 L 121.316406 241.585938 L 120.941406 241.585938 L 120.566406 241.210938 L 120.191406 241.210938 L 119.820312 240.835938 L 119.070312 240.835938 L 118.320312 240.085938 L 117.945312 240.085938 L 117.570312 239.710938 L 117.195312 239.710938 L 116.820312 239.339844 L 116.445312 239.339844 L 116.070312 238.964844 L 115.695312 238.964844 L 115.320312 238.589844 L 114.945312 238.589844 L 114.195312 237.839844 L 113.824219 237.839844 L 113.074219 237.09375 L 112.699219 237.09375 L 111.574219 235.96875 L 111.199219 235.96875 L 109.699219 234.472656 L 109.324219 234.472656 L 104.828125 229.980469 L 104.828125 229.609375 L 102.953125 227.734375 L 102.953125 227.363281 L 101.832031 226.238281 L 101.832031 225.863281 L 101.082031 225.117188 L 101.082031 224.742188 L 100.332031 223.992188 L 100.332031 223.621094 L 99.957031 223.246094 L 99.957031 222.871094 L 99.582031 222.496094 L 99.582031 222.121094 L 98.832031 221.375 L 98.832031 221 L 98.457031 220.625 L 98.457031 220.25 L 98.082031 219.875 L 98.082031 219.503906 L 97.707031 219.128906 L 97.707031 218.753906 L 97.332031 218.378906 L 97.332031 218.003906 L 96.957031 217.632812 L 96.957031 216.882812 L 96.582031 216.507812 L 96.582031 216.132812 L 96.207031 215.757812 L 96.207031 215.011719 L 95.835938 214.636719 L 95.835938 213.886719 L 95.460938 213.515625 L 95.460938 212.765625 L 95.085938 212.390625 L 95.085938 211.644531 L 94.710938 211.269531 L 94.710938 210.144531 L 94.335938 209.769531 L 94.335938 208.648438 L 93.960938 208.273438 L 93.960938 207.152344 L 93.585938 206.777344 L 93.585938 204.90625 L 93.210938 204.53125 L 93.210938 202.660156 L 92.835938 202.285156 L 92.835938 198.917969 L 92.460938 198.542969 L 92.460938 185.070312 L 92.835938 184.695312 L 92.835938 182.074219 L 93.210938 181.703125 L 93.210938 179.457031 L 93.585938 179.082031 L 93.585938 177.585938 L 93.960938 177.210938 L 93.960938 175.339844 L 94.335938 174.964844 L 94.335938 173.46875 L 94.710938 173.09375 L 94.710938 171.96875 L 95.085938 171.597656 L 95.085938 170.472656 L 95.460938 170.097656 L 95.460938 168.976562 L 95.835938 168.601562 L 95.835938 167.851562 L 96.207031 167.480469 L 96.207031 166.355469 L 96.582031 165.980469 L 96.582031 165.234375 L 96.957031 164.859375 L 96.957031 164.109375 L 97.332031 163.738281 L 97.332031 162.988281 L 97.707031 162.613281 L 97.707031 161.863281 L 98.082031 161.492188 L 98.082031 160.742188 L 98.457031 160.367188 L 98.457031 159.621094 L 98.832031 159.246094 L 98.832031 158.496094 L 99.207031 158.121094 L 99.207031 157.75 L 99.582031 157.375 L 99.582031 156.625 L 99.957031 156.25 L 99.957031 155.875 L 100.332031 155.503906 L 100.332031 154.753906 L 100.707031 154.378906 L 100.707031 154.003906 L 101.082031 153.632812 L 101.082031 152.882812 L 101.457031 152.507812 L 101.457031 152.132812 L 101.832031 151.761719 L 101.832031 151.386719 L 102.203125 151.011719 L 102.203125 150.636719 L 102.578125 150.261719 L 102.578125 149.886719 L 102.953125 149.515625 L 102.953125 149.140625 L 103.328125 148.765625 L 103.328125 148.015625 L 103.703125 147.644531 L 103.703125 147.269531 L 104.078125 146.894531 L 104.078125 146.519531 L 104.453125 146.144531 L 104.453125 145.773438 L 104.828125 145.398438 L 104.828125 145.023438 L 105.203125 144.648438 L 105.203125 144.273438 L 105.578125 143.898438 L 105.578125 143.527344 L 105.953125 143.152344 L 105.953125 142.777344 L 106.328125 142.402344 L 106.328125 142.027344 L 107.078125 141.28125 L 107.078125 140.90625 L 107.453125 140.53125 L 107.453125 140.15625 L 107.828125 139.785156 L 107.828125 139.410156 L 108.199219 139.035156 L 108.199219 138.660156 L 108.949219 137.910156 L 108.949219 137.539062 L 109.324219 137.164062 L 109.324219 136.789062 L 109.699219 136.414062 L 109.699219 136.039062 L 110.449219 135.292969 L 110.449219 134.917969 L 110.824219 134.542969 L 110.824219 134.167969 L 111.574219 133.421875 L 111.574219 133.046875 L 111.949219 132.671875 L 111.949219 132.296875 L 112.699219 131.550781 L 112.699219 131.175781 L 113.074219 130.800781 L 113.074219 130.425781 L 113.824219 129.679688 L 113.824219 129.304688 L 114.570312 128.554688 L 114.570312 128.179688 L 115.320312 127.433594 L 115.320312 127.058594 L 116.070312 126.308594 L 116.070312 125.933594 L 116.820312 125.1875 L 116.820312 124.8125 L 117.570312 124.0625 L 117.570312 123.691406 L 118.320312 122.941406 L 118.320312 122.566406 L 119.445312 121.445312 L 119.445312 121.070312 L 120.191406 120.320312 L 120.191406 119.945312 L 121.316406 118.824219 L 121.316406 118.449219 L 122.066406 117.703125 L 122.066406 117.328125 L 123.191406 116.203125 L 123.191406 115.832031 L 124.316406 114.707031 L 124.316406 114.332031 L 125.441406 113.210938 L 125.441406 112.835938 L 126.5625 111.714844 L 126.5625 111.339844 L 128.4375 109.46875 L 128.4375 109.09375 L 129.9375 107.597656 L 129.9375 107.222656 L 131.4375 105.726562 L 131.4375 105.351562 L 132.933594 103.855469 L 132.933594 103.480469 L 135.183594 101.234375 L 135.183594 100.859375 L 137.433594 98.613281 L 137.433594 98.238281 L 138.554688 97.117188 L 150.171875 97.117188 L 150.546875 97.492188 L 156.542969 97.492188 L 156.917969 97.867188 L 160.667969 97.867188 L 161.042969 98.238281 L 164.414062 98.238281 L 164.789062 98.613281 L 167.414062 98.613281 L 167.789062 98.988281 L 170.035156 98.988281 L 170.410156 99.363281 L 172.660156 99.363281 L 173.035156 99.738281 L 174.53125 99.738281 L 174.90625 100.109375 L 176.78125 100.109375 L 177.15625 100.484375 L 178.65625 100.484375 L 179.03125 100.859375 L 180.152344 100.859375 L 180.527344 101.234375 L 182.027344 101.234375 L 182.402344 101.609375 L 183.527344 101.609375 L 183.902344 101.980469 L 185.027344 101.980469 L 185.402344 102.355469 L 186.898438 102.355469 L 187.273438 102.730469 L 188.398438 102.730469 L 188.773438 103.105469 L 189.898438 103.105469 L 190.273438 103.480469 L 191.023438 103.480469 L 191.398438 103.855469 L 192.519531 103.855469 L 192.894531 104.226562 L 194.019531 104.226562 L 194.394531 104.601562 L 195.144531 104.601562 L 195.519531 104.976562 L 196.644531 104.976562 L 197.019531 105.351562 L 197.769531 105.351562 L 198.140625 105.726562 L 199.265625 105.726562 L 199.640625 106.097656 L 200.390625 106.097656 L 200.765625 106.472656 L 201.890625 106.472656 L 202.265625 106.847656 L 203.015625 106.847656 L 203.390625 107.222656 L 204.136719 107.222656 L 204.511719 107.597656 L 205.261719 107.597656 L 205.636719 107.96875 L 206.386719 107.96875 L 206.761719 108.34375 L 207.511719 108.34375 L 207.886719 108.71875 L 208.636719 108.71875 L 209.011719 109.09375 L 209.761719 109.09375 L 210.132812 109.46875 L 210.882812 109.46875 L 211.257812 109.84375 L 212.007812 109.84375 L 212.382812 110.214844 L 213.132812 110.214844 L 213.507812 110.589844 L 214.257812 110.589844 L 214.632812 110.964844 L 215.007812 110.964844 L 215.382812 111.339844 L 216.128906 111.339844 L 216.503906 111.714844 L 217.253906 111.714844 L 217.628906 112.085938 L 218.378906 112.085938 L 218.753906 112.460938 L 219.503906 112.460938 L 219.878906 112.835938 L 220.253906 112.835938 L 220.628906 113.210938 L 221.378906 113.210938 L 221.753906 113.585938 L 222.5 113.585938 L 222.875 113.957031 L 223.25 113.957031 L 223.625 114.332031 L 224.375 114.332031 L 224.75 114.707031 L 225.125 114.707031 L 225.5 115.082031 L 226.25 115.082031 L 226.625 115.457031 L 227.375 115.457031 L 227.75 115.832031 L 228.121094 115.832031 L 228.496094 116.203125 L 229.246094 116.203125 L 229.621094 116.578125 L 229.996094 116.578125 L 230.371094 116.953125 L 231.121094 116.953125 L 231.496094 117.328125 L 231.871094 117.328125 L 232.246094 117.703125 L 232.996094 117.703125 L 233.371094 118.074219 L 233.746094 118.074219 L 234.117188 118.449219 L 234.492188 118.449219 L 234.492188 118.074219 L 234.867188 117.703125 L 234.867188 116.953125 L 235.242188 116.578125 L 235.242188 115.832031 L 235.617188 115.457031 L 235.617188 114.332031 L 235.992188 113.957031 L 235.992188 113.210938 L 236.367188 112.835938 L 236.367188 111.714844 L 236.742188 111.339844 L 236.742188 110.589844 L 237.117188 110.214844 L 237.117188 109.09375 L 237.492188 108.71875 L 237.492188 107.96875 L 237.867188 107.597656 L 237.867188 106.472656 L 238.242188 106.097656 L 238.242188 104.976562 L 238.617188 104.601562 L 238.617188 103.855469 L 238.992188 103.480469 L 238.992188 102.355469 L 239.367188 101.980469 L 239.367188 101.234375 L 239.742188 100.859375 L 239.742188 99.738281 L 240.113281 99.363281 L 240.113281 98.613281 L 240.488281 98.238281 L 240.488281 97.492188 L 240.863281 97.117188 L 240.863281 95.992188 L 241.238281 95.621094 L 241.238281 94.871094 L 241.613281 94.496094 L 241.613281 93.75 L 241.988281 93.375 L 241.988281 92.25 L 242.363281 91.878906 L 242.363281 91.128906 L 242.738281 90.753906 L 242.738281 90.003906 L 243.113281 89.632812 L 243.113281 88.507812 L 243.488281 88.132812 L 243.488281 87.386719 L 243.863281 87.011719 L 243.863281 85.890625 L 243.488281 85.890625 L 243.113281 85.515625 L 241.238281 85.515625 L 240.863281 85.140625 L 239.367188 85.140625 L 238.992188 84.765625 L 237.492188 84.765625 L 237.117188 84.390625 L 235.617188 84.390625 L 235.242188 84.015625 L 233.746094 84.015625 L 233.371094 83.644531 L 231.871094 83.644531 L 231.496094 83.269531 L 229.996094 83.269531 L 229.621094 82.894531 L 228.121094 82.894531 L 227.75 82.519531 L 226.25 82.519531 L 225.875 82.144531 L 224.375 82.144531 L 224 81.773438 L 222.5 81.773438 L 222.125 81.398438 L 221.003906 81.398438 L 220.628906 81.023438 L 219.128906 81.023438 L 218.753906 80.648438 L 217.253906 80.648438 L 216.878906 80.273438 L 215.382812 80.273438 L 215.007812 79.902344 L 213.882812 79.902344 L 213.507812 79.527344 L 212.007812 79.527344 L 211.632812 79.152344 L 210.132812 79.152344 L 209.761719 78.777344 L 208.636719 78.777344 L 208.261719 78.402344 L 206.761719 78.402344 L 206.386719 78.027344 L 204.886719 78.027344 L 204.511719 77.65625 L 203.390625 77.65625 L 203.015625 77.28125 L 201.515625 77.28125 L 201.140625 76.90625 L 199.640625 76.90625 L 199.265625 76.53125 L 197.769531 76.53125 L 197.394531 76.15625 L 195.894531 76.15625 L 195.519531 75.785156 L 194.019531 75.785156 L 193.644531 75.410156 L 192.519531 75.410156 L 192.144531 75.035156 L 190.648438 75.035156 L 190.273438 74.660156 L 188.773438 74.660156 L 188.398438 74.285156 L 186.898438 74.285156 L 186.523438 73.914062 L 185.027344 73.914062 L 184.652344 73.539062 L 183.152344 73.539062 L 182.777344 73.164062 L 181.277344 73.164062 L 180.902344 72.789062 L 179.40625 72.789062 L 179.03125 72.414062 L 177.53125 72.414062 L 177.15625 72.039062 L 175.65625 72.039062 L 175.28125 71.667969 L 173.785156 71.667969 L 173.410156 71.292969 L 171.535156 71.292969 L 171.160156 70.917969 L 169.660156 70.917969 L 169.285156 70.542969 L 167.414062 70.542969 L 167.039062 70.167969 L 165.164062 70.167969 L 164.789062 69.796875 L 163.289062 69.796875 L 162.914062 69.421875 L 161.042969 69.421875 L 160.667969 69.046875 L 158.792969 69.046875 L 158.417969 68.671875 L 156.917969 68.671875 L 156.542969 68.296875 L 154.296875 68.296875 L 153.921875 67.925781 L 152.046875 67.925781 L 151.671875 67.550781 L 149.800781 67.550781 L 149.425781 67.175781 L 147.175781 67.175781 L 146.800781 66.800781 L 144.550781 66.800781 L 144.175781 66.425781 L 141.929688 66.425781 L 141.554688 66.050781 L 139.304688 66.050781 L 138.929688 65.679688 L 136.308594 65.679688 L 135.933594 65.304688 L 133.308594 65.304688 L 132.933594 64.929688 L 129.5625 64.929688 L 129.1875 64.554688 L 125.816406 64.554688 L 125.441406 64.179688 L 122.066406 64.179688 L 121.691406 63.808594 L 117.570312 63.808594 L 117.195312 63.433594 L 113.074219 63.433594 L 112.699219 63.058594 Z M 106.328125 63.058594 " fill-opacity="1" fill-rule="nonzero"/></svg>