<?xml version="1.0" encoding="utf-8" ?>
<svg baseProfile="full" height="1024" version="1.1" width="1536" xmlns="http://www.w3.org/2000/svg" xmlns:ev="http://www.w3.org/2001/xml-events" xmlns:xlink="http://www.w3.org/1999/xlink"><defs /><path d="M 551,180 545,186 544,186 499,231 499,232 490,241 490,242 479,253 479,254 475,258 475,259 467,267 467,268 462,273 462,274 457,279 457,280 453,284 453,285 450,288 450,289 446,293 446,294 443,297 443,298 440,301 440,302 437,305 437,306 434,309 434,310 431,313 431,314 428,317 428,318 426,320 426,321 424,323 424,324 422,326 422,327 420,329 420,330 417,333 417,334 415,336 415,337 414,338 414,339 411,342 411,343 410,344 410,345 408,347 408,348 406,350 406,351 405,352 405,353 404,354 404,355 402,357 402,358 400,360 400,361 399,362 399,363 397,365 397,366 396,367 396,368 395,369 395,370 394,371 394,372 392,374 392,375 391,376 391,377 390,378 390,379 389,380 389,381 388,382 388,383 387,384 387,385 386,386 386,387 385,388 385,389 384,390 384,391 383,392 383,393 382,394 382,395 381,396 381,397 380,398 380,399 379,400 379,401 378,402 378,404 377,405 377,406 376,407 376,408 375,409 375,410 374,411 374,412 373,413 373,415 372,416 372,417 371,418 371,420 370,421 370,423 369,424 369,425 368,426 368,427 367,428 367,430 366,431 366,433 365,434 365,435 364,436 364,439 363,440 363,441 362,442 362,444 361,445 361,448 360,449 360,451 359,452 359,455 358,456 358,458 357,459 357,462 356,463 356,466 355,467 355,471 354,472 354,476 353,477 353,480 352,481 352,486 351,487 351,493 350,494 350,502 349,503 349,516 348,517 348,534 349,535 349,547 350,548 350,556 351,557 351,563 352,564 352,568 353,569 353,573 354,574 354,577 355,578 355,581 356,582 356,584 357,585 357,587 358,588 358,591 359,592 359,594 360,595 360,597 361,598 361,600 362,601 362,603 363,604 363,605 364,606 364,607 365,608 365,610 366,611 366,612 367,613 367,615 368,616 368,617 369,618 369,619 370,620 370,621 372,623 372,624 373,625 373,627 375,629 375,630 376,631 376,632 377,633 377,634 378,635 378,636 380,638 380,639 381,640 381,641 383,643 383,644 384,645 384,646 386,648 386,649 388,651 388,652 389,653 389,654 391,656 391,657 393,659 393,660 395,662 395,663 397,665 397,666 400,669 400,670 403,673 403,674 405,676 405,677 408,680 408,681 412,685 412,686 415,689 415,690 419,694 419,695 425,701 425,702 431,708 431,709 453,731 454,731 458,735 459,735 462,738 463,738 465,740 466,740 470,744 471,744 475,748 489,748 490,749 664,749 665,750 699,750 700,751 725,751 726,752 727,752 728,753 727,754 706,754 705,755 685,755 684,756 665,756 664,757 636,757 635,758 609,758 608,759 577,759 576,760 539,760 538,761 490,761 490,762 491,762 493,764 494,764 498,768 499,768 502,771 503,771 506,774 507,774 509,776 510,776 511,777 709,777 710,776 729,776 730,775 735,775 736,774 738,774 739,773 740,773 747,766 748,766 754,760 755,760 772,743 773,743 787,729 787,728 793,722 793,721 796,718 796,717 800,713 800,712 802,710 802,709 805,706 805,705 807,703 807,702 810,699 810,698 812,696 812,695 814,693 814,692 816,690 816,689 819,686 819,685 821,683 821,682 822,681 822,680 824,678 824,677 826,675 826,674 828,672 828,671 829,670 829,669 831,667 831,666 832,665 832,664 834,662 834,661 835,660 835,659 837,657 837,656 838,655 838,654 840,652 840,651 841,650 841,649 842,648 842,647 843,646 843,645 845,643 845,642 846,641 846,640 847,639 847,638 848,637 848,636 850,634 850,633 851,632 851,631 852,630 852,629 853,628 853,627 854,626 854,625 855,624 855,623 856,622 856,621 857,620 857,619 858,618 858,616 860,614 860,612 861,611 861,610 862,609 862,608 863,607 863,606 864,605 864,604 865,603 865,602 866,601 866,600 867,599 867,597 868,596 868,595 869,594 869,593 870,592 870,590 871,589 871,588 872,587 872,586 873,585 873,583 874,582 874,581 875,580 875,578 876,577 876,576 877,575 877,573 878,572 878,571 879,570 879,568 880,567 880,566 881,565 881,563 882,562 882,561 883,560 883,558 884,557 884,555 885,554 885,552 886,551 886,550 887,549 887,547 888,546 888,544 889,543 889,541 890,540 890,538 891,537 891,535 892,534 892,532 893,531 893,529 894,528 894,526 895,525 895,523 894,523 893,522 892,522 891,521 889,521 888,520 887,520 886,519 885,519 884,518 883,518 882,517 880,517 879,516 878,516 877,515 876,515 875,514 873,514 872,513 871,513 870,512 869,512 868,511 867,511 866,510 864,510 863,509 861,509 860,508 859,508 858,507 856,507 855,506 854,506 853,505 851,505 850,504 848,504 847,503 846,503 845,502 843,502 842,501 840,501 839,500 837,500 836,499 835,499 834,498 832,498 831,497 829,497 828,496 826,496 825,495 823,495 822,494 821,494 820,493 817,493 816,492 814,492 813,491 811,491 810,490 808,490 807,489 805,489 804,488 802,488 801,487 798,487 797,486 795,486 794,485 792,485 791,484 789,484 788,483 785,483 784,482 782,482 781,481 778,481 777,480 775,480 774,479 772,479 771,478 768,478 767,477 764,477 763,476 760,476 759,475 757,475 756,474 753,474 752,473 749,473 748,472 745,472 744,471 741,471 740,470 737,470 736,469 733,469 732,468 729,468 728,467 725,467 724,466 721,466 720,465 716,465 715,464 712,464 711,463 708,463 707,462 703,462 702,461 698,461 697,460 693,460 692,459 689,459 688,458 686,458 686,460 685,461 685,465 684,466 684,470 683,471 683,474 682,475 682,479 681,480 681,484 680,485 680,489 679,490 679,494 678,495 678,499 677,500 677,504 676,505 676,509 675,510 675,514 674,515 674,519 673,520 673,524 672,525 672,528 671,529 671,533 670,534 670,538 669,539 669,543 668,544 668,548 667,549 667,550 668,551 671,551 672,552 675,552 676,553 680,553 681,554 684,554 685,555 688,555 689,556 692,556 693,557 695,557 696,558 699,558 700,559 702,559 703,560 706,560 707,561 709,561 710,562 712,562 713,563 715,563 716,564 718,564 719,565 721,565 722,566 723,566 724,567 726,567 727,568 729,568 730,569 731,569 732,570 733,570 734,571 735,571 736,572 737,572 738,573 740,573 742,575 742,578 743,579 743,583 744,584 744,590 745,591 745,598 746,599 746,610 747,611 747,631 746,632 745,632 744,633 742,633 741,634 737,634 736,635 733,635 732,636 728,636 727,637 722,637 721,638 716,638 715,639 709,639 708,640 700,640 699,641 687,641 686,642 659,642 658,641 650,641 649,640 644,640 643,639 638,639 637,638 635,638 634,637 632,637 631,636 629,636 628,635 626,635 625,634 624,634 623,633 621,633 620,632 619,632 618,631 617,631 616,630 615,630 613,628 612,628 608,624 607,624 601,618 601,617 597,613 597,612 594,609 594,608 592,606 592,605 590,603 590,602 589,601 589,600 588,599 588,598 586,596 586,595 585,594 585,593 584,592 584,590 583,589 583,588 582,587 582,586 581,585 581,583 580,582 580,581 579,580 579,578 578,577 578,575 577,574 577,572 576,571 576,569 575,568 575,566 574,565 574,563 573,562 573,559 572,558 572,554 571,553 571,543 570,542 570,519 571,518 571,509 572,508 572,501 573,500 573,495 574,494 574,490 575,489 575,485 576,484 576,481 577,480 577,477 578,476 578,473 579,472 579,469 580,468 580,465 581,464 581,462 582,461 582,458 583,457 583,455 584,454 584,452 585,451 585,449 586,448 586,446 587,445 587,443 588,442 588,440 589,439 589,437 590,436 590,435 591,434 591,432 592,431 592,430 593,429 593,428 594,427 594,425 595,424 595,423 596,422 596,421 597,420 597,418 598,417 598,416 599,415 599,414 600,413 600,412 601,411 601,410 602,409 602,407 603,406 603,405 604,404 604,403 605,402 605,401 606,400 606,399 607,398 607,397 608,396 608,395 609,394 609,393 611,391 611,390 612,389 612,388 613,387 613,386 614,385 614,384 615,383 615,382 617,380 617,379 618,378 618,377 620,375 620,374 621,373 621,372 623,370 623,369 625,367 625,366 627,364 627,363 628,362 628,361 630,359 630,358 632,356 632,355 635,352 635,351 637,349 637,348 639,346 639,345 642,342 642,341 645,338 645,337 647,335 647,334 651,330 651,329 655,325 655,324 662,317 665,317 666,316 671,316 672,315 679,315 680,314 687,314 688,313 697,313 698,312 712,312 713,311 752,311 753,312 762,312 763,313 769,313 770,314 775,314 776,315 781,315 782,316 786,316 787,317 790,317 791,318 795,318 796,319 799,319 800,320 803,320 804,321 806,321 807,322 809,322 810,323 813,323 814,324 816,324 817,325 820,325 821,326 823,326 824,327 826,327 827,328 829,328 830,329 832,329 833,330 835,330 836,331 838,331 839,332 840,332 841,333 842,333 843,334 843,335 842,336 842,338 841,339 841,340 840,341 840,343 839,344 839,346 838,347 838,350 837,351 837,355 836,356 836,360 835,361 835,371 834,372 834,391 835,392 835,399 836,400 836,404 837,405 837,408 838,409 838,412 839,413 839,416 840,417 840,419 841,420 841,421 842,422 842,424 843,425 843,426 844,427 844,428 845,429 845,430 846,431 846,432 847,433 847,434 848,435 848,436 851,439 851,440 854,443 854,444 856,446 856,447 860,451 860,452 867,459 868,459 870,461 870,462 871,462 878,469 879,469 882,472 883,472 886,475 887,475 890,478 891,478 894,481 895,481 897,483 898,483 900,485 901,485 902,486 903,486 905,488 906,488 908,490 909,490 911,492 912,492 914,494 915,494 917,496 918,496 920,498 921,498 923,500 924,500 925,501 926,501 928,503 929,503 930,504 931,504 932,505 933,505 935,507 936,507 938,509 939,509 940,510 941,510 942,511 943,511 945,513 946,513 947,514 948,514 949,515 950,515 951,516 952,516 954,518 955,518 956,519 957,519 958,520 959,520 960,521 961,521 962,522 963,522 964,523 965,523 966,524 967,524 968,525 969,525 970,526 971,526 972,527 973,527 974,528 975,528 976,529 977,529 978,530 979,530 980,531 981,531 982,532 984,532 986,534 988,534 989,535 990,535 991,536 993,536 994,537 995,537 996,538 997,538 998,539 1000,539 1001,540 1002,540 1003,541 1004,541 1005,542 1006,542 1007,543 1009,543 1010,544 1011,544 1012,545 1014,545 1015,546 1016,546 1017,547 1018,547 1019,548 1021,548 1022,549 1024,549 1025,550 1026,550 1027,551 1029,551 1030,552 1031,552 1032,553 1034,553 1035,554 1036,554 1037,555 1039,555 1040,556 1041,556 1042,557 1043,557 1044,558 1046,558 1047,559 1048,559 1049,560 1050,560 1051,561 1053,561 1054,562 1055,562 1056,563 1058,563 1059,564 1060,564 1061,565 1063,565 1064,566 1065,566 1066,567 1067,567 1068,568 1069,568 1070,569 1072,569 1073,570 1074,570 1075,571 1076,571 1077,572 1078,572 1079,573 1080,573 1081,574 1082,574 1083,575 1084,575 1085,576 1086,576 1087,577 1088,577 1089,578 1090,578 1092,580 1093,580 1094,581 1095,581 1098,584 1099,584 1101,586 1101,587 1103,589 1103,590 1104,591 1104,593 1105,594 1105,600 1106,601 1106,621 1105,622 1105,628 1104,629 1104,632 1103,633 1103,636 1102,637 1102,639 1101,640 1101,642 1100,643 1100,645 1099,646 1099,648 1098,649 1098,650 1097,651 1097,652 1096,653 1096,654 1100,654 1101,653 1107,653 1108,652 1112,652 1113,651 1114,651 1118,647 1118,646 1119,645 1119,644 1120,643 1120,641 1121,640 1121,639 1122,638 1122,636 1123,635 1123,632 1124,631 1124,628 1125,627 1125,622 1126,621 1126,616 1127,615 1127,606 1128,605 1128,581 1127,580 1127,570 1113,556 1112,556 1107,551 1106,551 1103,548 1102,548 1099,545 1098,545 1095,542 1094,542 1092,540 1091,540 1089,538 1088,538 1086,536 1085,536 1084,535 1083,535 1081,533 1080,533 1078,531 1077,531 1075,529 1074,529 1073,528 1072,528 1070,526 1069,526 1068,525 1067,525 1065,523 1064,523 1063,522 1062,522 1060,520 1059,520 1058,519 1057,519 1056,518 1055,518 1054,517 1053,517 1051,515 1052,514 1053,514 1054,515 1055,515 1056,516 1058,516 1059,517 1060,517 1061,518 1063,518 1064,519 1065,519 1066,520 1067,520 1068,521 1070,521 1071,522 1072,522 1073,523 1075,523 1076,524 1077,524 1078,525 1079,525 1080,526 1081,526 1082,527 1083,527 1084,528 1086,528 1087,529 1088,529 1089,530 1090,530 1091,531 1092,531 1093,532 1094,532 1095,533 1096,533 1097,534 1098,534 1099,535 1100,535 1101,536 1102,536 1103,537 1104,537 1105,538 1106,538 1107,539 1108,539 1109,540 1110,540 1112,542 1113,542 1114,543 1115,543 1117,545 1118,545 1119,546 1120,546 1122,548 1123,548 1125,550 1126,550 1128,552 1129,552 1132,555 1133,555 1139,561 1140,561 1141,562 1141,563 1144,566 1144,570 1145,571 1145,601 1144,602 1144,609 1143,610 1143,615 1142,616 1142,620 1141,621 1141,624 1140,625 1140,628 1139,629 1139,632 1138,633 1138,636 1137,637 1137,639 1136,640 1136,642 1135,643 1135,645 1134,646 1134,647 1133,648 1133,650 1132,651 1132,652 1131,653 1131,655 1130,656 1130,657 1129,658 1129,659 1123,665 1122,665 1121,666 1120,666 1119,667 1118,667 1117,668 1114,668 1113,669 1109,669 1108,670 1102,670 1101,671 1087,671 1086,672 1062,672 1061,671 1032,671 1031,670 1019,670 1018,669 1011,669 1010,668 1004,668 1003,667 998,667 997,666 992,666 991,665 988,665 987,664 983,664 982,663 979,663 978,662 975,662 974,661 971,661 970,660 968,660 967,659 965,659 964,658 962,658 961,657 958,657 957,656 955,656 954,655 953,655 952,654 950,654 949,653 947,653 946,652 944,652 943,651 942,651 941,650 939,650 938,649 937,649 936,648 934,648 933,647 932,647 931,646 929,646 928,645 927,645 926,644 925,644 924,643 923,643 922,642 920,642 918,640 917,640 916,639 915,639 914,638 913,638 912,637 911,637 910,636 909,636 908,635 907,635 906,634 905,634 904,633 903,633 902,632 901,632 899,630 898,630 897,629 896,629 895,628 894,628 892,626 891,626 890,625 889,625 886,622 887,621 887,619 888,618 888,617 889,616 889,614 890,613 890,612 891,611 891,609 892,608 892,607 893,606 893,604 894,603 894,601 895,600 895,599 896,598 896,596 897,595 897,593 898,592 898,590 899,589 899,588 900,587 900,585 901,584 901,581 902,580 902,578 903,577 903,575 904,574 904,571 905,570 905,567 906,566 906,564 907,563 907,560 908,559 908,557 909,556 909,552 910,551 910,548 911,547 911,544 910,543 910,546 909,547 909,548 908,549 908,551 907,552 907,554 906,555 906,556 905,557 905,559 904,560 904,562 903,563 903,564 902,565 902,567 901,568 901,570 900,571 900,572 899,573 899,574 898,575 898,577 897,578 897,579 896,580 896,581 895,582 895,584 894,585 894,586 893,587 893,588 892,589 892,591 891,592 891,593 890,594 890,595 889,596 889,597 888,598 888,599 887,600 887,601 886,602 886,604 885,605 885,606 884,607 884,608 883,609 883,610 882,611 882,612 881,613 881,614 880,615 880,616 879,617 879,618 878,619 878,620 877,621 877,622 876,623 876,624 875,625 875,627 873,629 873,630 872,631 872,632 871,633 871,634 870,635 870,636 869,637 869,638 868,639 868,640 867,641 867,642 866,643 866,644 865,645 865,646 864,647 864,648 863,649 863,650 861,652 861,653 860,654 860,655 859,656 859,657 858,658 858,659 857,660 857,661 855,663 855,664 854,665 854,666 853,667 853,668 851,670 851,671 850,672 850,673 849,674 849,675 847,677 847,678 846,679 846,680 844,682 844,683 843,684 843,685 841,687 841,688 840,689 840,690 838,692 838,693 837,694 837,695 835,697 835,698 833,700 833,701 831,703 831,704 829,706 829,707 827,709 827,710 825,712 825,713 822,716 822,717 820,719 820,720 818,722 818,723 815,726 815,727 812,730 812,731 809,734 809,735 805,739 805,740 802,743 803,743 804,744 807,744 808,745 811,745 812,746 816,746 817,747 821,747 822,748 825,748 826,749 830,749 831,750 835,750 836,751 840,751 841,752 845,752 846,753 850,753 851,754 854,754 855,755 860,755 861,756 865,756 866,757 870,757 871,758 876,758 877,759 882,759 883,760 887,760 888,761 893,761 894,762 898,762 899,763 904,763 905,764 910,764 911,765 916,765 917,766 922,766 923,767 929,767 930,768 936,768 937,769 943,769 944,770 949,770 950,771 957,771 958,772 964,772 965,773 971,773 972,774 979,774 980,775 988,775 989,776 996,776 997,777 1005,777 1006,778 1015,778 1016,779 1026,779 1027,780 1028,779 1029,780 1052,780 1053,779 1062,779 1063,778 1069,778 1070,777 1075,777 1076,776 1079,776 1080,775 1083,775 1084,774 1086,774 1087,773 1090,773 1091,772 1093,772 1094,771 1095,771 1096,770 1098,770 1099,769 1100,769 1101,768 1103,768 1104,767 1105,767 1106,766 1107,766 1108,765 1109,765 1110,764 1111,764 1112,763 1113,763 1114,762 1115,762 1116,761 1117,761 1119,759 1120,759 1121,758 1122,758 1124,756 1125,756 1128,753 1129,753 1132,750 1133,750 1137,746 1138,746 1150,734 1150,733 1156,727 1156,726 1159,723 1159,722 1161,720 1161,719 1163,717 1163,716 1165,714 1165,713 1166,712 1166,711 1168,709 1168,708 1169,707 1169,706 1170,705 1170,704 1171,703 1171,702 1172,701 1172,700 1173,699 1173,698 1174,697 1174,696 1175,695 1175,694 1176,693 1176,692 1177,691 1177,690 1178,689 1178,687 1179,686 1179,685 1180,684 1180,683 1181,682 1181,680 1182,679 1182,677 1183,676 1183,674 1184,673 1184,671 1185,670 1185,668 1186,667 1186,665 1187,664 1187,661 1188,660 1188,658 1189,657 1189,654 1190,653 1190,650 1191,649 1191,645 1192,644 1192,641 1193,640 1193,635 1194,634 1194,629 1195,628 1195,623 1196,622 1196,614 1197,613 1197,600 1198,599 1198,576 1197,575 1197,563 1196,562 1196,557 1195,556 1195,552 1194,551 1194,548 1193,547 1193,545 1192,544 1192,543 1191,542 1191,541 1190,540 1190,539 1189,538 1189,537 1187,535 1187,534 1180,527 1179,527 1177,525 1176,525 1174,523 1173,523 1172,522 1171,522 1170,521 1169,521 1168,520 1167,520 1166,519 1165,519 1164,518 1163,518 1162,517 1161,517 1160,516 1159,516 1158,515 1157,515 1156,514 1155,514 1154,513 1153,513 1152,512 1150,512 1149,511 1148,511 1147,510 1146,510 1145,509 1144,509 1143,508 1141,508 1140,507 1139,507 1138,506 1136,506 1135,505 1134,505 1133,504 1132,504 1131,503 1129,503 1128,502 1127,502 1126,501 1124,501 1123,500 1122,500 1121,499 1119,499 1118,498 1117,498 1116,497 1114,497 1113,496 1111,496 1110,495 1109,495 1108,494 1106,494 1105,493 1104,493 1103,492 1101,492 1100,491 1098,491 1097,490 1096,490 1095,489 1093,489 1092,488 1090,488 1089,487 1087,487 1086,486 1085,486 1084,485 1082,485 1081,484 1079,484 1078,483 1077,483 1076,482 1074,482 1073,481 1071,481 1070,480 1068,480 1067,479 1066,479 1065,478 1063,478 1062,477 1060,477 1059,476 1058,476 1057,475 1055,475 1054,474 1052,474 1051,473 1050,473 1049,472 1047,472 1046,471 1044,471 1043,470 1041,470 1040,469 1038,469 1037,468 1036,468 1035,467 1033,467 1032,466 1031,466 1030,465 1028,465 1027,464 1025,464 1024,463 1023,463 1022,462 1020,462 1019,461 1017,461 1016,460 1015,460 1014,459 1012,459 1011,458 1010,458 1009,457 1007,457 1006,456 1005,456 1004,455 1002,455 1001,454 1000,454 999,453 997,453 996,452 995,452 994,451 992,451 991,450 990,450 989,449 987,449 986,448 985,448 984,447 983,447 982,446 981,446 980,445 978,445 977,444 976,444 975,443 974,443 973,442 972,442 971,441 970,441 969,440 968,440 967,439 966,439 965,438 964,438 963,437 962,437 961,436 960,436 959,435 958,435 957,434 956,434 954,432 953,432 951,430 950,430 943,423 943,422 942,421 942,420 941,419 941,417 940,416 940,411 939,410 939,403 940,402 940,396 941,395 941,392 942,391 942,389 943,388 943,386 944,385 944,384 945,383 945,382 946,381 946,380 947,379 947,378 948,377 948,376 950,374 950,373 951,372 951,371 953,369 953,368 956,365 956,364 969,351 970,351 974,347 975,347 978,344 979,344 981,342 982,342 984,340 985,340 987,338 988,338 990,336 991,336 992,335 993,335 994,334 995,334 996,333 997,333 999,331 1000,331 1001,330 1002,330 1003,329 1004,329 1005,328 1006,328 1007,327 1008,327 1009,326 1011,326 1012,325 1013,325 1014,324 1015,324 1016,323 1021,323 1022,322 1028,322 1029,321 1039,321 1040,320 1071,320 1072,321 1081,321 1082,322 1091,322 1092,323 1097,323 1098,324 1103,324 1104,325 1108,325 1109,326 1113,326 1114,327 1118,327 1119,328 1122,328 1123,329 1126,329 1127,330 1130,330 1131,331 1133,331 1134,332 1137,332 1138,333 1137,334 1106,334 1105,335 1077,335 1076,336 1059,336 1058,337 1044,337 1043,338 1031,338 1030,339 1022,339 1021,340 1020,340 1019,341 1018,341 1017,342 1015,342 1014,343 1013,343 1012,344 1011,344 1010,345 1009,345 1008,346 1007,346 1006,347 1005,347 1004,348 1003,348 1001,350 1000,350 998,352 997,352 995,354 994,354 991,357 990,357 988,359 987,359 981,365 980,365 980,366 975,371 975,372 971,376 971,377 969,379 969,380 968,381 968,382 966,384 966,385 965,386 965,387 964,388 964,389 963,390 963,392 962,393 962,395 961,396 961,398 960,399 960,404 959,405 959,411 960,412 960,415 961,416 961,417 962,417 962,414 963,413 963,411 964,410 964,409 965,408 965,407 966,406 966,405 967,404 967,403 969,401 969,400 973,396 973,395 988,380 989,380 991,378 992,378 994,376 995,376 997,374 998,374 1001,371 1002,371 1003,370 1004,370 1006,368 1007,368 1008,367 1009,367 1010,366 1011,366 1012,365 1013,365 1014,364 1015,364 1016,363 1017,363 1018,362 1019,362 1020,361 1022,361 1023,360 1025,360 1026,359 1028,359 1029,358 1031,358 1032,357 1035,357 1036,356 1039,356 1040,355 1044,355 1045,354 1049,354 1050,353 1055,353 1056,352 1064,352 1065,351 1077,351 1078,350 1106,350 1107,351 1121,351 1122,352 1129,352 1130,353 1135,353 1136,354 1141,354 1142,355 1145,355 1146,356 1150,356 1151,357 1153,357 1154,358 1156,358 1156,357 1157,356 1157,352 1158,351 1158,346 1159,345 1159,340 1160,339 1160,334 1161,333 1161,327 1162,326 1162,321 1163,320 1163,314 1164,313 1164,307 1165,306 1165,300 1166,299 1166,293 1167,292 1167,287 1168,286 1168,280 1169,279 1169,274 1170,273 1170,270 1171,269 1171,255 1172,254 1171,253 1162,253 1161,252 1147,252 1146,251 1096,251 1095,252 1079,252 1078,253 1069,253 1068,254 1059,254 1058,255 1051,255 1050,256 1045,256 1044,257 1038,257 1037,258 1033,258 1032,259 1028,259 1027,260 1023,260 1022,261 1018,261 1017,262 1014,262 1013,263 1010,263 1009,264 1006,264 1005,265 1002,265 1001,266 999,266 998,267 995,267 994,268 992,268 991,269 988,269 987,270 985,270 984,271 982,271 981,272 979,272 978,273 977,273 976,274 974,274 973,275 971,275 970,276 969,276 968,277 966,277 965,278 964,278 963,279 961,279 960,280 958,280 957,281 956,281 955,282 953,282 952,283 951,283 950,284 949,284 948,285 947,285 946,286 944,286 943,287 942,287 941,288 940,288 939,289 938,289 937,290 936,290 935,291 934,291 932,293 931,293 930,294 928,294 927,295 926,295 925,296 924,296 923,297 923,298 922,299 922,301 921,302 921,305 920,306 920,308 919,309 919,312 918,313 918,315 917,316 917,318 916,319 916,322 915,323 915,326 914,327 914,329 913,330 913,333 912,334 912,336 911,337 911,340 910,341 910,343 909,344 909,346 908,347 908,349 907,350 906,350 905,349 903,349 902,348 901,348 900,347 898,347 897,346 896,346 895,345 894,345 893,344 891,344 890,343 889,343 888,342 886,342 885,341 884,341 883,340 881,340 880,339 879,339 878,338 876,338 875,337 874,337 873,336 871,336 870,335 869,335 868,334 866,334 865,333 863,333 862,332 860,332 859,331 858,331 857,330 855,330 854,329 852,329 851,328 849,328 848,327 846,327 845,326 843,326 842,325 840,325 839,324 837,324 836,323 834,323 833,322 831,322 830,321 829,321 828,320 825,320 824,319 822,319 821,318 819,318 818,317 816,317 815,316 813,316 812,315 809,315 808,314 805,314 804,313 802,313 801,312 798,312 797,311 795,311 794,310 791,310 790,309 787,309 786,308 784,308 783,307 780,307 779,306 775,306 774,305 771,305 770,304 766,304 765,303 762,303 761,302 757,302 756,301 751,301 750,300 746,300 745,299 740,299 739,298 733,298 732,297 725,297 724,296 717,296 716,295 706,295 705,294 692,294 691,293 648,293 641,300 641,301 637,305 637,306 633,310 633,311 630,314 630,315 626,319 626,320 624,322 624,323 620,327 620,328 617,331 617,332 615,334 615,335 613,337 613,338 611,340 611,341 608,344 608,345 605,348 605,349 604,350 604,351 602,353 602,354 600,356 600,357 598,359 598,360 597,361 597,362 595,364 595,365 593,367 593,368 592,369 592,370 590,372 590,373 588,375 588,376 587,377 587,378 585,380 585,381 584,382 584,383 583,384 583,385 582,386 582,387 580,389 580,390 579,391 579,392 578,393 578,394 577,395 577,396 576,397 576,398 575,399 575,400 573,402 573,403 572,404 572,405 571,406 571,407 570,408 570,409 569,410 569,411 568,412 568,413 567,414 567,416 566,417 566,418 565,419 565,420 564,421 564,422 563,423 563,424 562,425 562,427 561,428 561,429 560,430 560,431 559,432 559,434 558,435 558,436 557,437 557,439 556,440 556,441 555,442 555,444 554,445 554,446 553,447 553,449 552,450 552,452 551,453 551,455 550,456 550,458 549,459 549,461 548,462 548,465 547,466 547,468 546,469 546,471 545,472 545,475 544,476 544,479 543,480 543,483 542,484 542,488 541,489 541,492 540,493 540,498 539,499 539,503 538,504 538,510 537,511 537,521 536,522 536,552 537,553 537,562 538,563 538,568 539,569 539,573 540,574 540,577 541,578 541,581 542,582 542,584 543,585 543,587 544,588 544,590 545,591 545,593 546,594 546,595 547,596 547,597 548,598 548,599 549,600 549,601 550,602 550,603 551,604 551,605 552,606 552,607 553,608 553,609 555,611 555,612 557,614 557,615 560,618 560,619 565,624 565,625 570,630 571,630 575,634 576,634 578,636 579,636 582,639 583,639 584,640 585,640 587,642 588,642 589,643 590,643 591,644 592,644 593,645 594,645 595,646 596,646 597,647 599,647 600,648 601,648 602,649 604,649 605,650 608,650 609,651 611,651 612,652 615,652 616,653 619,653 620,654 624,654 625,655 630,655 631,656 639,656 640,657 681,657 682,656 692,656 693,655 700,655 701,654 707,654 708,653 712,653 713,652 717,652 718,651 722,651 723,650 726,650 727,649 730,649 731,648 735,648 736,647 739,647 740,646 742,646 743,645 745,645 746,644 749,644 750,643 752,643 753,642 755,642 756,641 757,641 758,640 760,640 761,639 763,639 764,638 765,638 766,637 767,637 769,635 769,634 768,633 768,624 767,623 767,618 766,617 766,613 765,612 765,607 764,606 764,603 763,602 763,598 762,597 762,594 761,593 761,589 760,588 760,585 759,584 759,581 758,580 758,578 757,577 757,574 756,573 756,571 755,570 754,570 753,569 751,569 750,568 748,568 747,567 745,567 744,566 742,566 741,565 738,565 737,564 735,564 734,563 731,563 730,562 727,562 726,561 723,561 722,560 719,560 718,559 714,559 713,558 709,558 708,557 704,557 703,556 699,556 698,555 694,555 693,554 689,554 688,553 683,553 682,552 678,552 677,551 678,550 709,550 710,551 726,551 727,552 737,552 738,553 745,553 746,554 752,554 753,555 757,555 758,556 761,556 762,557 764,557 765,558 767,558 768,559 770,559 771,560 771,561 772,562 772,565 773,566 773,570 774,571 774,575 775,576 775,580 776,581 776,586 777,587 777,592 778,593 778,599 779,600 779,606 780,607 780,613 781,614 781,622 782,623 782,631 783,632 783,638 781,640 780,640 779,641 778,641 777,642 776,642 775,643 774,643 773,644 772,644 771,645 769,645 768,646 766,646 765,647 764,647 763,648 762,648 761,649 759,649 758,650 756,650 755,651 753,651 752,652 750,652 749,653 747,653 746,654 744,654 743,655 741,655 740,656 737,656 736,657 734,657 733,658 730,658 729,659 727,659 726,660 723,660 722,661 718,661 717,662 714,662 713,663 709,663 708,664 703,664 702,665 698,665 697,666 691,666 690,667 685,667 684,668 676,668 675,669 662,669 661,670 650,670 649,669 635,669 634,668 627,668 626,667 622,667 621,666 617,666 616,665 613,665 612,664 609,664 608,663 605,663 604,662 602,662 601,661 599,661 598,660 597,660 596,659 594,659 593,658 592,658 591,657 590,657 589,656 588,656 587,655 585,655 583,653 582,653 581,652 580,652 579,651 578,651 577,650 576,650 575,649 574,649 572,647 571,647 569,645 568,645 565,642 564,642 560,638 559,638 547,626 547,625 542,620 542,619 539,616 539,615 537,613 537,612 535,610 535,609 534,608 534,607 533,606 533,605 531,603 531,602 530,601 530,600 529,599 529,598 528,597 528,596 527,595 527,594 526,593 526,591 525,590 525,589 524,588 524,586 523,585 523,583 522,582 522,580 521,579 521,577 520,576 520,573 519,572 519,569 518,568 518,565 517,564 517,559 516,558 516,553 515,552 515,543 514,542 514,506 515,505 515,498 516,497 516,491 517,490 517,486 518,485 518,480 519,479 519,475 520,474 520,471 521,470 521,467 522,466 522,463 523,462 523,460 524,459 524,456 525,455 525,453 526,452 526,450 527,449 527,447 528,446 528,444 529,443 529,441 530,440 530,438 531,437 531,435 532,434 532,433 533,432 533,430 534,429 534,428 535,427 535,425 536,424 536,423 537,422 537,420 538,419 538,418 539,417 539,416 540,415 540,414 541,413 541,412 542,411 542,410 543,409 543,407 544,406 544,405 545,404 545,403 546,402 546,401 547,400 547,399 548,398 548,397 549,396 549,395 550,394 550,393 551,392 551,391 553,389 553,388 554,387 554,386 555,385 555,384 556,383 556,382 558,380 558,379 559,378 559,377 560,376 560,375 562,373 562,372 563,371 563,370 565,368 565,367 566,366 566,365 568,363 568,362 569,361 569,360 571,358 571,357 573,355 573,354 575,352 575,351 577,349 577,348 579,346 579,345 581,343 581,342 583,340 583,339 586,336 586,335 588,333 588,332 591,329 591,328 593,326 593,325 596,322 596,321 599,318 599,317 602,314 602,313 605,310 605,309 610,304 610,303 614,299 614,298 618,294 618,293 622,289 622,288 628,282 628,281 634,275 634,274 637,271 668,271 669,272 685,272 686,273 696,273 697,274 706,274 707,275 714,275 715,276 721,276 722,277 728,277 729,278 733,278 734,279 739,279 740,280 744,280 745,281 748,281 749,282 753,282 754,283 757,283 758,284 761,284 762,285 766,285 767,286 770,286 771,287 774,287 775,288 777,288 778,289 781,289 782,290 785,290 786,291 788,291 789,292 792,292 793,293 795,293 796,294 799,294 800,295 802,295 803,296 806,296 807,297 809,297 810,298 812,298 813,299 815,299 816,300 818,300 819,301 821,301 822,302 824,302 825,303 827,303 828,304 830,304 831,305 833,305 834,306 836,306 837,307 839,307 840,308 841,308 842,309 844,309 845,310 847,310 848,311 850,311 851,312 853,312 854,313 855,313 856,314 858,314 859,315 861,315 862,316 863,316 864,317 866,317 867,318 868,318 869,319 871,319 872,320 874,320 875,321 876,321 877,322 879,322 880,323 881,323 882,324 884,324 885,325 886,325 887,326 889,326 890,327 891,327 892,328 893,328 893,327 894,326 894,324 895,323 895,321 896,320 896,317 897,316 897,314 898,313 898,310 899,309 899,307 900,306 900,303 901,302 901,300 902,299 902,296 903,295 903,292 904,291 904,289 905,288 905,285 906,284 906,282 907,281 907,278 908,277 908,275 909,274 909,272 910,271 910,268 911,267 911,265 912,264 912,262 913,261 913,258 914,257 914,255 915,254 915,252 916,251 916,248 917,247 917,245 918,244 918,241 917,241 916,240 911,240 910,239 906,239 905,238 901,238 900,237 896,237 895,236 891,236 890,235 886,235 885,234 881,234 880,233 876,233 875,232 871,232 870,231 866,231 865,230 861,230 860,229 857,229 856,228 852,228 851,227 847,227 846,226 842,226 841,225 838,225 837,224 833,224 832,223 828,223 827,222 824,222 823,221 819,221 818,220 814,220 813,219 810,219 809,218 805,218 804,217 800,217 799,216 795,216 794,215 790,215 789,214 785,214 784,213 781,213 780,212 776,212 775,211 771,211 770,210 766,210 765,209 761,209 760,208 756,208 755,207 751,207 750,206 746,206 745,205 741,205 740,204 736,204 735,203 731,203 730,202 725,202 724,201 720,201 719,200 714,200 713,199 708,199 707,198 703,198 702,197 697,197 696,196 691,196 690,195 686,195 685,194 679,194 678,193 673,193 672,192 667,192 666,191 660,191 659,190 653,190 652,189 646,189 645,188 639,188 638,187 631,187 630,186 623,186 622,185 613,185 612,184 603,184 602,183 593,183 592,182 581,182 580,181 569,181 568,180 Z" fill="black" /></svg>